if (_typeface_js && _typeface_js.loadFace) _typeface_js.loadFace({"glyphs":{"S":{"x_min":5.5625,"x_max":645.890625,"ha":792,"o":"m 645 186 q 626 112 645 140 q 579 60 613 93 q 525 15 545 27 q 445 -8 483 -8 l 215 -8 q 43 104 127 -8 q 5 176 31 119 l 115 205 l 129 179 q 208 101 155 130 q 219 100 213 100 l 440 100 q 448 101 447 100 q 500 140 469 111 q 530 187 530 170 l 530 269 q 500 316 530 308 l 116 416 q 44 469 70 429 q 18 558 18 509 l 18 637 q 37 711 18 683 q 84 763 50 730 q 138 809 118 797 q 218 833 180 833 l 427 833 q 598 720 513 833 q 637 650 613 702 l 526 618 l 512 645 q 476 690 501 666 q 433 723 451 713 q 423 725 429 725 l 225 725 q 219 725 222 725 l 215 723 q 164 683 197 715 q 131 637 131 651 l 131 563 q 162 519 131 527 l 544 416 q 618 364 590 404 q 645 277 645 325 l 645 186 "},"¦":{"x_min":0,"x_max":0,"ha":726},"/":{"x_min":-16.671875,"x_max":565.328125,"ha":600,"o":"m 565 838 l 109 0 l -16 0 l 440 838 l 565 838 "},"y":{"x_min":-44.453125,"x_max":494.484375,"ha":597,"o":"m 494 598 l 219 -237 l 101 -237 l 181 -9 l 161 -9 l -44 598 l 72 598 l 227 120 l 383 598 l 494 598 "},"≈":{"x_min":0,"x_max":0,"ha":695},"Ž":{"x_min":0,"x_max":0,"ha":714},"Á":{"x_min":-41.671875,"x_max":688.9375,"ha":800,"o":"m 490 1086 l 284 872 l 170 907 l 343 1086 l 490 1086 m 688 0 l 566 0 l 504 187 l 143 187 l 79 0 l -41 0 l 248 844 l 398 843 l 688 0 m 468 295 l 323 722 l 179 295 l 468 295 "},"g":{"x_min":11.109375,"x_max":536.15625,"ha":701,"o":"m 536 597 l 525 484 l 525 -63 q 502 -144 525 -112 q 436 -211 475 -181 q 340 -240 395 -240 l 201 -240 q 106 -211 147 -240 q 54 -159 81 -194 q 13 -94 26 -125 l 115 -61 q 152 -113 127 -87 q 197 -138 176 -138 l 338 -138 q 355 -134 343 -138 q 392 -104 369 -126 q 416 -72 415 -83 l 416 -61 l 416 37 q 309 -15 358 -15 l 195 -15 q 100 12 138 -15 q 33 80 63 38 q 11 161 11 112 l 11 427 q 33 508 11 476 q 100 576 63 550 q 195 604 138 604 l 309 604 q 422 545 358 604 l 427 597 l 536 597 m 418 166 l 418 422 q 362 472 400 443 q 305 502 325 502 l 197 502 q 180 498 193 502 q 120 440 141 476 q 118 425 118 437 l 118 163 q 120 148 118 151 q 180 88 143 111 q 197 86 188 86 l 305 86 q 318 87 315 86 q 418 166 380 119 "},"²":{"x_min":-22.21875,"x_max":365.59375,"ha":433,"o":"m 365 693 q 343 629 368 651 q 276 595 319 608 l 112 548 q 93 520 93 538 l 362 520 l 362 429 l -6 429 l -6 525 q 84 636 -6 609 l 236 679 l 244 682 q 254 686 251 684 q 261 693 258 688 q 265 701 265 697 l 265 709 l 265 712 q 237 736 258 725 q 202 748 216 748 l 140 748 l 134 748 l 130 748 q 45 693 112 738 l -22 755 q 13 782 -13 761 q 56 811 41 802 q 95 830 70 820 q 143 840 119 840 l 205 840 q 284 815 248 840 q 341 769 333 780 q 351 756 347 762 q 357 745 355 750 q 361 732 359 740 q 363 720 362 723 q 364 707 363 718 q 365 693 365 695 "},"–":{"x_min":11.109375,"x_max":300.03125,"ha":450,"o":"m 300 294 l 11 294 l 11 391 l 300 391 l 300 294 "},"ë":{"x_min":11.109375,"x_max":525.046875,"ha":671,"o":"m 525 136 q 485 71 511 104 q 433 20 459 38 q 338 -6 394 -6 l 197 -6 q 101 20 140 -6 q 34 87 62 50 q 11 166 11 119 l 11 430 q 34 509 11 477 q 101 576 62 547 q 197 604 140 604 l 336 604 q 431 576 393 604 q 498 509 470 547 q 520 430 520 477 l 520 258 l 119 258 l 119 169 q 122 154 119 156 q 156 114 133 136 q 197 93 179 93 l 341 93 q 358 97 345 93 q 390 122 372 104 q 415 154 408 140 l 423 169 l 525 136 m 412 358 l 412 427 q 411 443 412 440 q 351 500 391 476 q 334 504 338 504 l 197 504 q 156 482 179 504 q 122 443 133 461 q 119 427 119 440 l 119 358 l 412 358 m 418 716 l 298 716 l 298 844 l 418 844 l 418 716 m 209 716 l 90 716 l 90 844 l 209 844 l 209 716 "},"ƒ":{"x_min":-94.453125,"x_max":375.03125,"ha":472,"o":"m 375 738 l 270 738 q 250 736 254 738 q 215 707 236 727 q 193 675 194 687 l 193 662 l 193 607 l 300 607 l 300 505 l 194 505 l 194 -62 q 170 -143 194 -109 q 104 -211 140 -184 q 9 -238 63 -238 l -94 -238 l -94 -136 l 8 -136 q 25 -134 22 -136 q 81 -75 61 -113 q 84 -59 84 -72 l 84 0 l 84 505 l -13 505 l -13 607 l 84 607 l 84 665 q 106 745 84 713 q 173 812 134 783 q 269 840 213 840 l 375 840 l 375 738 "},"Î":{"x_min":-160.78125,"x_max":308.703125,"ha":340,"o":"m 138 0 l 23 0 l 23 833 l 138 833 l 138 0 m 308 937 l 282 926 l 173 926 l 89 1002 l 60 1002 l -24 926 l -134 926 l -160 937 l 18 1091 l 129 1091 l 308 937 "},"e":{"x_min":11.109375,"x_max":525.046875,"ha":671,"o":"m 525 136 q 485 71 511 104 q 433 20 459 38 q 338 -6 394 -6 l 197 -6 q 101 20 140 -6 q 34 87 62 50 q 11 166 11 119 l 11 430 q 34 509 11 477 q 101 576 62 547 q 197 604 140 604 l 336 604 q 431 576 393 604 q 498 509 470 547 q 520 430 520 477 l 520 258 l 119 258 l 119 169 q 122 154 119 156 q 156 114 133 136 q 197 93 179 93 l 341 93 q 358 97 345 93 q 390 122 372 104 q 415 154 408 140 l 423 169 l 525 136 m 412 358 l 412 427 q 411 443 412 440 q 351 500 391 476 q 334 504 338 504 l 197 504 q 156 482 179 504 q 122 443 133 461 q 119 427 119 440 l 119 358 l 412 358 "},"Ã":{"x_min":-41.671875,"x_max":688.9375,"ha":800,"o":"m 688 0 l 566 0 l 504 186 l 143 186 l 79 0 l -41 0 l 248 837 l 398 836 l 688 0 m 468 293 l 323 716 l 179 293 l 468 293 m 525 932 l 422 912 q 370 941 407 948 l 270 923 q 164 935 214 912 q 94 1010 115 958 l 197 1029 q 248 1000 212 993 l 348 1018 q 455 1006 405 1029 q 525 932 504 983 "},"J":{"x_min":-36.109375,"x_max":481.984375,"ha":649,"o":"m 481 188 q 461 115 481 145 q 414 62 447 95 q 362 18 381 29 q 281 -5 320 -5 l 173 -5 q 2 106 86 -5 q -36 179 -9 123 l 73 208 l 87 181 q 123 136 98 159 q 165 104 148 112 q 177 102 172 102 l 275 102 q 283 104 281 102 q 334 144 301 112 q 366 190 366 176 l 366 838 l 481 838 l 481 188 "},"»":{"x_min":41.671875,"x_max":643.109375,"ha":835,"o":"m 643 337 l 445 141 l 326 172 l 509 350 l 509 366 l 327 541 l 445 576 l 643 377 l 643 337 m 358 337 l 161 141 l 41 172 l 225 350 l 225 366 l 43 541 l 161 576 l 358 377 l 358 337 "},"©":{"x_min":11.109375,"x_max":761.171875,"ha":897,"o":"m 761 194 q 740 120 761 151 q 694 68 727 101 q 640 23 661 36 q 559 0 598 0 l 209 0 q 130 23 172 0 q 76 68 109 36 q 30 120 43 101 q 11 194 11 148 l 11 647 q 30 719 11 691 q 77 774 44 740 q 130 819 111 808 q 209 843 172 843 l 559 843 q 640 819 598 843 q 732 719 676 797 q 761 647 761 676 l 761 194 m 651 644 q 648 655 651 650 q 607 703 636 676 q 562 737 579 730 l 558 738 q 552 738 555 738 l 216 738 q 211 738 213 738 l 206 737 q 163 702 191 729 q 122 655 134 675 q 120 644 120 654 l 120 195 q 154 147 120 180 q 206 105 187 115 l 211 104 q 216 102 213 102 l 552 102 q 558 104 555 102 l 562 105 q 616 147 583 115 q 650 195 650 179 l 651 644 m 607 294 q 512 201 547 225 q 434 170 469 170 l 356 170 q 263 198 302 170 q 198 266 226 226 q 175 344 175 302 l 175 493 q 198 570 175 534 q 228 605 206 583 q 263 637 250 627 q 356 675 315 675 l 434 675 q 462 670 448 675 q 491 656 476 666 q 516 638 505 645 q 543 613 526 630 q 566 590 559 597 q 588 564 572 583 q 605 544 604 545 l 498 520 q 441 562 475 541 q 431 563 440 563 l 358 563 q 343 561 347 563 q 284 504 304 538 q 281 490 281 501 l 281 347 q 284 331 281 334 q 315 295 293 318 q 350 272 337 273 l 358 272 l 431 272 l 441 272 q 497 318 451 277 l 607 294 "},"˘":{"x_min":79.171875,"x_max":451.421875,"ha":683,"o":"m 451 913 q 444 885 448 904 q 435 853 440 866 q 422 830 430 840 q 358 772 397 798 q 284 750 322 750 l 247 750 q 172 772 208 750 q 105 832 131 798 q 93 856 97 843 q 85 886 88 869 q 79 913 81 904 l 172 913 q 188 892 175 909 q 212 861 201 875 q 231 844 223 848 q 244 841 234 841 l 287 841 q 300 844 297 841 q 355 901 331 861 q 357 908 356 904 q 358 913 358 912 l 451 913 "},"≥":{"x_min":4.171875,"x_max":516.703125,"ha":643,"o":"m 516 347 l 5 70 l 5 190 l 368 384 l 4 579 l 4 698 l 516 423 l 516 347 "},"ò":{"x_min":11.109375,"x_max":519.484375,"ha":672,"o":"m 519 166 q 497 87 519 119 q 430 20 469 50 q 334 -6 391 -6 l 195 -6 q 100 20 138 -6 q 33 87 61 50 q 11 166 11 119 l 11 430 q 33 509 11 477 q 100 576 61 547 q 195 604 138 604 l 334 604 q 430 576 391 604 q 497 509 469 547 q 519 430 519 477 l 519 166 m 411 158 l 411 169 l 411 427 q 409 443 411 440 q 350 500 390 476 q 333 504 337 504 l 197 504 q 180 500 193 504 q 120 443 140 476 q 118 427 118 440 l 118 169 q 120 154 118 156 q 180 97 140 120 q 197 93 193 93 l 333 93 q 350 97 337 93 q 387 126 365 105 q 411 158 409 147 m 381 729 l 266 698 l 58 888 l 206 888 l 381 729 "},"^":{"x_min":41.671875,"x_max":511.15625,"ha":603,"o":"m 511 736 l 484 725 l 376 725 l 291 801 l 262 801 l 177 725 l 68 725 l 41 736 l 220 890 l 331 890 l 511 736 "},"«":{"x_min":38.890625,"x_max":637.546875,"ha":832,"o":"m 637 172 l 518 141 l 320 337 l 320 377 l 518 576 l 636 541 l 454 366 l 454 350 l 637 172 m 355 172 l 236 141 l 38 337 l 38 377 l 236 576 l 354 541 l 172 366 l 172 350 l 355 172 "},"D":{"x_min":23.609375,"x_max":605.609375,"ha":774,"o":"m 605 193 q 586 120 605 148 q 540 68 573 101 q 486 23 506 36 q 406 0 444 0 l 23 0 l 23 836 l 406 836 q 486 813 450 836 q 538 768 505 802 q 586 713 572 734 q 605 641 605 686 l 605 193 m 493 195 l 493 638 q 491 650 493 648 q 452 695 479 669 q 409 727 426 720 l 405 727 q 400 729 402 729 l 136 729 l 136 108 l 400 108 q 405 108 402 108 l 409 109 q 461 149 430 119 q 493 195 493 179 "},"ł":{"x_min":0,"x_max":0,"ha":374},"ÿ":{"x_min":0,"x_max":0,"ha":582},"Ł":{"x_min":0,"x_max":0,"ha":640},"í":{"x_min":-21.046875,"x_max":302.59375,"ha":300,"o":"m 131 0 l 23 0 l 23 597 l 131 597 l 131 0 m 302 888 l 94 698 l -21 729 l 153 888 l 302 888 "},"ˆ":{"x_min":22.21875,"x_max":491.703125,"ha":589,"o":"m 491 737 l 465 726 l 356 726 l 272 802 l 243 802 l 158 726 l 48 726 l 22 737 l 201 891 l 312 891 l 491 737 "},"w":{"x_min":-48.609375,"x_max":834.78125,"ha":931,"o":"m 834 597 l 657 0 l 527 0 l 393 441 l 263 0 l 134 0 l -48 597 l 66 597 l 200 133 l 327 597 l 459 597 l 593 133 l 720 597 l 834 597 "},"$":{"x_min":-36.109375,"x_max":604.21875,"ha":765,"o":"m 604 184 q 586 109 604 137 q 539 57 573 90 q 484 12 505 25 q 405 -12 440 -12 l 341 -12 l 341 -130 l 234 -130 l 234 -12 l 173 -12 q 2 101 86 -12 q -36 173 -12 120 l 75 204 l 88 177 q 125 131 100 155 q 168 98 150 108 q 177 97 172 97 l 234 97 l 234 375 q 179 388 219 379 q 120 402 140 397 q 68 422 100 408 q 20 452 36 436 q -9 495 4 468 q -22 559 -22 523 l -22 638 q -2 713 -22 686 q 44 766 11 733 q 97 812 77 800 q 176 837 141 837 l 234 837 l 234 950 l 341 950 l 341 837 l 386 837 q 558 723 475 837 q 597 651 570 707 l 486 619 l 472 647 q 436 692 461 668 q 393 726 411 716 q 381 727 387 727 l 341 727 l 341 461 q 397 447 356 456 q 458 433 437 438 q 511 413 479 427 q 561 383 544 400 q 591 338 577 366 q 604 276 604 311 l 604 184 m 234 488 l 234 727 l 183 727 q 175 725 177 727 q 124 684 156 716 q 91 638 91 652 l 91 565 q 120 519 91 527 l 234 488 m 490 186 l 490 268 q 427 329 490 309 q 375 341 408 334 q 341 347 343 347 l 341 97 l 398 97 q 408 98 406 97 q 459 138 427 108 q 490 186 490 169 "},"∫":{"x_min":0,"x_max":0,"ha":695},"\\":{"x_min":-25,"x_max":556.984375,"ha":600,"o":"m 556 0 l 430 0 l -25 838 l 100 838 l 556 0 "},"Ì":{"x_min":-117.65625,"x_max":205.96875,"ha":340,"o":"m 138 0 l 23 0 l 23 833 l 138 833 l 138 0 m 205 929 l 90 898 l -117 1088 l 30 1088 l 205 929 "},"Ç":{"x_min":23.609375,"x_max":618.109375,"ha":751,"o":"m 618 176 q 579 104 591 120 q 408 -8 494 -8 l 225 -8 q 144 15 186 -8 q 90 60 123 27 q 44 112 56 93 q 23 186 23 143 l 23 640 q 44 712 23 682 q 91 766 58 732 q 144 811 125 800 q 223 834 186 834 l 408 834 q 579 722 494 834 q 618 651 594 704 l 506 619 l 493 647 q 457 691 481 668 q 415 725 433 715 q 404 726 409 726 l 230 726 q 225 725 227 726 l 220 725 q 179 691 205 716 q 140 647 152 666 q 138 605 138 644 l 138 187 q 169 140 138 170 q 220 101 200 111 l 225 100 q 230 100 227 100 l 404 100 l 415 101 q 456 133 431 109 q 493 179 481 156 q 506 205 497 184 l 618 176 m 400 -91 l 316 -244 l 194 -244 l 294 -59 l 400 -91 "},"’":{"x_min":55.5625,"x_max":172.234375,"ha":315,"o":"m 172 723 l 162 641 l 55 641 l 66 741 l 66 909 l 172 909 l 172 723 "},"-":{"x_min":11.109375,"x_max":495.875,"ha":646,"o":"m 495 294 l 11 294 l 11 393 l 495 393 l 495 294 "},"Q":{"x_min":23.609375,"x_max":645.890625,"ha":806,"o":"m 645 181 q 625 106 645 137 q 579 54 612 87 q 525 9 545 22 q 461 -12 495 -8 l 513 -134 l 394 -134 l 344 -13 l 225 -13 q 144 9 186 -13 q 90 54 123 22 q 44 106 56 87 q 23 181 23 137 l 23 636 q 44 711 23 680 q 91 764 58 730 q 144 809 125 798 q 225 832 180 832 l 445 832 q 525 809 488 832 q 577 764 544 798 q 625 711 611 730 q 645 636 645 680 l 645 181 m 530 183 l 530 634 q 500 682 530 651 q 448 722 469 712 q 438 723 445 723 l 230 723 q 220 722 223 723 q 169 682 200 712 q 138 634 138 651 l 138 183 q 170 137 138 169 q 220 97 202 105 l 225 95 q 231 94 229 94 l 297 94 l 284 126 l 388 161 l 416 94 l 438 94 q 444 95 441 94 l 448 97 q 500 136 469 106 q 530 183 530 166 "},"M":{"x_min":23.609375,"x_max":755.609375,"ha":931,"o":"m 755 0 l 644 0 l 644 662 l 426 215 l 351 215 l 136 662 l 136 0 l 23 0 l 23 833 l 168 833 l 390 379 l 613 833 l 755 833 l 755 0 "},"C":{"x_min":23.609375,"x_max":618.109375,"ha":751,"o":"m 618 176 q 579 104 591 120 q 408 -8 494 -8 l 225 -8 q 144 15 186 -8 q 90 60 123 27 q 44 112 56 93 q 23 186 23 143 l 23 640 q 44 712 23 682 q 91 766 58 732 q 144 811 125 800 q 223 834 186 834 l 408 834 q 579 722 494 834 q 618 651 594 704 l 506 619 l 493 647 q 457 691 481 668 q 415 725 433 715 q 404 726 409 726 l 230 726 q 225 725 227 726 l 220 725 q 179 691 205 716 q 140 647 152 666 q 138 605 138 644 l 138 187 q 169 140 138 170 q 220 101 200 111 l 225 100 q 230 100 227 100 l 404 100 l 415 101 q 456 133 431 109 q 493 179 481 156 q 506 205 497 184 l 618 176 "},"œ":{"x_min":-2.78125,"x_max":937.578125,"ha":1070,"o":"m 937 143 q 897 78 923 111 q 845 27 872 45 q 751 0 807 0 l 595 0 q 465 59 522 0 q 334 0 408 0 l 181 0 q 86 27 125 0 q 19 94 47 56 q -2 173 -2 126 l -2 437 q 19 516 -2 484 q 86 583 47 554 q 181 609 125 609 l 334 609 q 465 551 406 609 q 595 611 522 611 l 748 611 q 844 583 805 611 q 911 516 883 554 q 933 437 933 484 l 933 265 l 519 265 l 519 173 l 519 165 q 543 133 519 155 q 580 104 566 111 q 597 100 593 100 l 754 100 q 769 102 762 100 q 784 112 776 105 q 795 123 791 119 q 807 137 800 127 q 816 148 815 147 q 841 175 823 156 l 937 143 m 825 365 l 825 434 q 823 450 825 447 q 763 506 804 483 q 747 509 759 509 l 597 509 q 580 506 584 509 q 543 477 566 500 q 519 445 519 455 l 519 437 l 519 365 l 825 365 m 411 165 l 411 176 l 411 434 q 409 450 411 447 q 350 506 390 483 q 333 509 345 509 l 183 509 q 166 506 170 509 q 129 477 151 498 q 105 445 106 456 l 105 434 l 105 176 q 106 161 105 163 q 166 104 126 127 q 183 100 179 100 l 333 100 q 350 104 337 100 q 387 133 365 112 q 411 165 409 154 "},"!":{"x_min":66.671875,"x_max":208.34375,"ha":297,"o":"m 193 236 l 84 236 l 84 843 l 193 843 l 193 236 m 208 0 l 66 0 l 66 136 l 208 136 l 208 0 "},"ç":{"x_min":11.109375,"x_max":523.65625,"ha":663,"o":"m 523 136 q 497 87 512 108 q 431 20 468 47 q 337 -6 393 -6 l 195 -6 q 100 20 138 -6 q 33 87 61 50 q 11 166 11 119 l 11 430 q 33 509 11 477 q 100 576 61 547 q 195 604 138 604 l 333 604 q 427 576 388 604 q 480 524 452 559 q 520 459 508 488 l 419 427 q 381 479 404 455 q 336 504 358 504 l 197 504 q 180 500 193 504 q 120 443 140 476 q 118 427 118 440 l 118 169 q 120 154 118 156 q 180 97 140 120 q 197 93 193 93 l 340 93 q 356 97 344 93 q 422 169 393 116 l 523 136 m 354 -91 l 270 -244 l 148 -244 l 248 -59 l 354 -91 "},"È":{"x_min":23.609375,"x_max":534.765625,"ha":710,"o":"m 534 0 l 23 0 l 23 833 l 534 833 l 534 725 l 137 725 l 137 470 l 534 470 l 534 362 l 137 362 l 137 108 l 534 108 l 534 0 m 421 929 l 306 898 l 98 1088 l 246 1088 l 421 929 "},"ﬁ":{"x_min":0,"x_max":0,"ha":668},"{":{"x_min":11.109375,"x_max":304.1875,"ha":485,"o":"m 304 8 l 222 -70 q 208 -57 220 -69 q 175 -26 195 -45 q 136 11 154 -6 q 31 120 51 93 q 11 194 11 151 l 11 645 q 31 719 11 688 q 131 827 61 761 q 185 878 154 850 q 222 912 216 907 l 304 833 q 288 818 302 832 q 252 785 273 805 q 211 747 230 765 q 126 643 126 668 l 126 197 q 211 94 126 176 q 304 8 280 27 "},"X":{"x_min":0,"x_max":607,"ha":703,"o":"m 607 834 l 366 416 l 605 0 l 480 0 l 304 308 l 126 0 l 1 0 l 240 416 l 0 834 l 126 834 l 304 525 l 480 834 l 607 834 "},"ô":{"x_min":11.109375,"x_max":519.484375,"ha":672,"o":"m 519 166 q 497 87 519 119 q 430 20 469 50 q 334 -6 391 -6 l 195 -6 q 100 20 138 -6 q 33 87 61 50 q 11 166 11 119 l 11 430 q 33 509 11 477 q 100 576 61 547 q 195 604 138 604 l 334 604 q 430 576 391 604 q 497 509 469 547 q 519 430 519 477 l 519 166 m 411 158 l 411 169 l 411 427 q 409 443 411 440 q 350 500 390 476 q 333 504 337 504 l 197 504 q 180 500 193 504 q 120 443 140 476 q 118 427 118 440 l 118 169 q 120 154 118 156 q 180 97 140 120 q 197 93 193 93 l 333 93 q 350 97 337 93 q 387 126 365 105 q 411 158 409 147 m 491 737 l 465 726 l 356 726 l 272 802 l 243 802 l 158 726 l 48 726 l 22 737 l 201 891 l 312 891 l 491 737 "},"¼":{"x_min":47.21875,"x_max":769.5,"ha":929,"o":"m 704 838 l 247 0 l 125 0 l 581 838 l 704 838 m 769 97 l 701 97 l 701 1 l 611 1 l 611 97 l 405 97 l 405 175 l 619 429 l 701 429 l 701 186 l 769 186 l 769 97 m 298 412 l 47 412 l 47 500 l 129 500 l 129 751 l 47 751 l 47 840 l 219 840 l 219 500 l 298 500 l 298 412 m 611 186 l 611 280 l 530 186 l 611 186 "},"#":{"x_min":-12.5,"x_max":604.21875,"ha":742,"o":"m 604 569 l 586 468 l 462 468 l 440 350 l 563 350 l 545 250 l 422 250 l 395 109 l 290 109 l 316 250 l 216 250 l 190 109 l 84 109 l 111 250 l -12 250 l 5 350 l 129 350 l 151 468 l 27 468 l 45 569 l 169 569 l 194 704 l 300 704 l 275 569 l 375 569 l 400 704 l 505 704 l 480 569 l 604 569 m 356 468 l 256 468 l 234 350 l 334 350 l 356 468 "},"Ê":{"x_min":23.609375,"x_max":534.765625,"ha":710,"o":"m 534 0 l 23 0 l 23 833 l 534 833 l 534 725 l 137 725 l 137 470 l 534 470 l 534 362 l 137 362 l 137 108 l 534 108 l 534 0 m 515 937 l 489 926 l 380 926 l 296 1002 l 267 1002 l 182 926 l 72 926 l 46 937 l 225 1091 l 336 1091 l 515 937 "},")":{"x_min":66.671875,"x_max":361.140625,"ha":497,"o":"m 361 647 l 359 194 q 340 120 359 148 q 293 68 327 101 q 238 23 259 36 q 159 0 197 0 l 66 0 l 66 108 l 152 108 q 158 108 155 108 l 162 109 q 213 150 180 118 q 245 195 245 181 l 245 644 q 213 692 245 661 q 162 733 181 723 l 158 733 q 152 734 155 734 l 66 734 l 66 843 l 159 843 q 240 819 198 843 q 293 774 259 808 q 340 720 326 740 q 361 647 361 690 "},"Å":{"x_min":-41.671875,"x_max":688.9375,"ha":800,"o":"m 504 1043 q 476 958 504 995 q 411 898 444 916 q 337 877 380 877 l 300 877 q 226 898 258 877 q 159 959 188 922 q 131 1043 131 994 l 131 1068 q 161 1151 131 1115 q 226 1212 193 1193 q 300 1233 261 1233 l 337 1233 q 411 1212 377 1233 q 476 1152 451 1186 q 504 1068 504 1116 l 504 1043 m 688 0 l 566 0 l 504 187 l 143 187 l 79 0 l -41 0 l 248 848 l 398 845 l 688 0 m 411 1043 l 411 1066 q 409 1082 411 1079 q 381 1117 401 1095 q 350 1140 361 1138 l 338 1140 l 297 1140 q 284 1138 286 1140 q 229 1083 255 1123 q 225 1066 225 1075 l 225 1043 q 246 1003 225 1027 q 284 970 268 979 q 297 969 286 969 l 340 969 q 352 970 350 969 q 409 1029 386 987 q 411 1043 411 1030 m 468 295 l 323 725 l 179 295 l 468 295 "},"Δ":{"x_min":0,"x_max":0,"ha":861},"ø":{"x_min":11.109375,"x_max":533.375,"ha":686,"o":"m 533 166 q 511 87 533 119 q 444 19 480 45 q 348 -8 405 -8 l 195 -8 q 162 -5 184 -8 l 143 -40 l 20 -40 l 68 47 q 24 102 37 77 q 11 166 11 127 l 11 430 q 33 509 11 477 q 100 577 63 551 q 195 605 138 605 l 348 605 q 375 602 355 605 l 390 630 l 511 630 l 470 555 q 518 496 504 522 q 533 430 533 470 l 533 166 m 348 509 l 347 509 l 343 509 l 345 505 l 348 509 m 425 156 l 425 169 l 425 427 q 416 455 425 444 l 216 91 l 347 91 q 363 95 351 91 q 401 125 379 104 q 425 156 423 145 m 330 509 l 197 509 q 177 506 181 509 q 115 445 136 484 q 112 427 112 440 l 112 169 q 115 151 112 159 l 125 137 l 330 509 "},"â":{"x_min":-13.890625,"x_max":513.9375,"ha":670,"o":"m 513 -1 l 405 -1 l 400 45 q 291 -8 336 -8 l 169 -8 q 75 19 113 -8 q 9 84 37 47 q -13 163 -13 116 l -13 190 q 9 269 -13 237 q 75 334 37 306 q 169 362 113 362 l 394 362 l 394 427 q 393 441 394 438 q 333 498 373 475 q 316 502 320 502 l 186 502 q 171 499 179 502 q 156 489 163 495 q 144 477 150 483 q 131 463 138 472 q 122 452 125 455 l 104 429 l 2 459 q 43 524 15 488 q 94 576 72 559 q 190 602 133 602 l 318 602 q 413 575 375 602 q 480 509 455 544 q 502 429 502 477 l 502 108 l 513 -1 m 395 165 l 395 262 l 170 262 q 154 259 162 262 q 97 202 118 238 q 94 188 94 200 l 94 165 q 97 151 94 154 q 154 95 116 116 q 170 91 166 91 l 287 91 q 300 94 294 91 q 395 165 369 126 m 491 737 l 465 726 l 356 726 l 272 802 l 243 802 l 158 726 l 48 726 l 22 737 l 201 891 l 312 891 l 491 737 "},"}":{"x_min":59.734375,"x_max":352.8125,"ha":489,"o":"m 352 194 q 331 120 352 151 q 229 11 306 84 q 190 -25 211 -5 q 156 -56 169 -44 q 140 -70 143 -68 l 59 8 q 152 94 83 27 q 237 197 237 176 l 237 643 q 152 747 237 665 q 111 785 133 765 q 75 818 90 805 q 59 833 61 832 l 140 912 q 231 827 206 851 q 331 719 306 755 q 352 645 352 688 l 352 194 "},"‰":{"x_min":25,"x_max":1254.265625,"ha":1340,"o":"m 1254 163 q 1233 93 1254 123 q 1166 26 1202 51 q 1063 0 1129 0 l 1034 0 q 966 26 1004 0 q 901 93 922 61 q 879 163 879 123 l 879 262 q 901 333 879 302 q 966 400 922 365 q 1052 426 1004 426 l 1082 426 q 1166 400 1129 426 q 1233 333 1202 375 q 1254 262 1254 302 l 1254 163 m 844 163 q 823 93 844 123 q 757 26 793 51 q 672 0 719 0 l 643 0 q 556 26 594 0 q 491 93 512 61 q 469 163 469 123 l 469 262 q 491 333 469 302 q 556 400 512 365 q 643 426 594 426 l 672 426 q 757 400 719 426 q 823 333 793 375 q 844 262 844 302 l 844 163 m 720 838 l 281 0 l 140 0 l 598 838 l 720 838 m 400 576 q 379 504 400 534 q 366 484 376 500 q 347 456 356 469 q 330 438 338 444 q 226 413 297 413 l 197 413 q 112 438 148 413 q 77 470 100 448 q 45 504 54 491 q 25 576 25 534 l 25 675 q 45 745 25 715 q 75 779 52 757 q 112 813 98 802 q 197 840 150 840 l 226 840 q 312 813 275 840 q 349 779 326 802 q 379 745 372 757 q 400 675 400 715 l 400 576 m 1155 161 l 1155 263 q 1152 276 1155 270 q 1120 311 1144 291 q 1080 331 1095 331 l 1054 331 q 1013 311 1038 331 q 980 276 988 291 q 979 263 979 275 l 979 161 q 980 148 979 150 q 1040 95 994 120 q 1054 93 1043 93 l 1080 93 q 1120 113 1095 93 q 1152 148 1144 133 q 1155 161 1155 154 m 745 161 l 745 263 q 743 276 745 270 q 710 311 734 291 q 670 331 686 331 l 644 331 q 604 311 629 331 q 570 276 579 291 q 569 263 569 275 l 569 161 q 570 148 569 150 q 630 95 584 120 q 644 93 633 93 l 670 93 q 710 113 686 93 q 743 148 734 133 q 745 161 745 154 m 300 565 l 300 575 l 300 677 q 298 690 300 688 q 240 743 283 719 q 226 745 237 745 l 198 745 q 184 743 187 745 q 126 690 141 719 q 123 677 123 684 l 123 575 q 145 539 123 559 q 184 509 166 519 q 198 508 186 508 l 226 508 q 240 509 238 508 q 275 536 252 516 q 300 565 298 555 "},"Ä":{"x_min":-41.671875,"x_max":688.9375,"ha":800,"o":"m 688 0 l 566 0 l 504 186 l 143 186 l 79 0 l -41 0 l 248 837 l 398 836 l 688 0 m 468 293 l 323 716 l 179 293 l 468 293 m 490 901 l 370 901 l 370 1029 l 490 1029 l 490 901 m 281 901 l 162 901 l 162 1029 l 281 1029 l 281 901 "},"¸":{"x_min":112.515625,"x_max":318.078125,"ha":564,"o":"m 318 -91 l 234 -244 l 112 -244 l 212 -59 l 318 -91 "},"a":{"x_min":-13.890625,"x_max":513.9375,"ha":670,"o":"m 513 -1 l 405 -1 l 400 45 q 291 -8 336 -8 l 169 -8 q 75 19 113 -8 q 9 84 37 47 q -13 163 -13 116 l -13 190 q 9 269 -13 237 q 75 334 37 306 q 169 362 113 362 l 394 362 l 394 427 q 393 441 394 438 q 333 498 373 475 q 316 502 320 502 l 186 502 q 171 499 179 502 q 156 489 163 495 q 144 477 150 483 q 131 463 138 472 q 122 452 125 455 l 104 429 l 2 459 q 43 524 15 488 q 94 576 72 559 q 190 602 133 602 l 318 602 q 413 575 375 602 q 480 509 455 544 q 502 429 502 477 l 502 108 l 513 -1 m 395 165 l 395 262 l 170 262 q 154 259 162 262 q 97 202 118 238 q 94 188 94 200 l 94 165 q 97 151 94 154 q 154 95 116 116 q 170 91 166 91 l 287 91 q 300 94 294 91 q 395 165 369 126 "},"—":{"x_min":11.109375,"x_max":623.65625,"ha":760,"o":"m 623 294 l 11 294 l 11 391 l 623 391 l 623 294 "},"=":{"x_min":13.890625,"x_max":525.046875,"ha":675,"o":"m 525 388 l 13 388 l 13 483 l 525 483 l 525 388 m 525 201 l 13 201 l 13 294 l 525 294 l 525 201 "},"N":{"x_min":23.609375,"x_max":618.109375,"ha":793,"o":"m 618 0 l 486 0 l 136 636 l 136 0 l 23 0 l 23 832 l 158 832 l 505 190 l 505 832 l 618 832 l 618 0 "},"˚":{"x_min":79.171875,"x_max":451.421875,"ha":683,"o":"m 451 822 q 422 738 451 775 q 358 680 397 707 q 284 658 322 658 l 247 658 q 172 680 208 658 q 105 740 131 707 q 79 822 79 775 l 79 848 q 106 930 79 895 q 172 990 134 966 q 247 1012 208 1012 l 284 1012 q 358 991 325 1012 q 422 932 395 966 q 451 848 451 895 l 451 822 m 358 822 l 358 847 q 355 861 358 857 q 327 896 347 875 q 295 919 306 918 l 286 919 l 244 919 l 231 919 q 193 886 213 909 q 172 847 172 863 l 172 822 q 193 784 172 807 q 231 752 215 761 q 244 750 234 750 l 287 750 q 300 752 297 750 q 355 809 331 769 q 358 822 358 813 "},"ú":{"x_min":11.109375,"x_max":522.265625,"ha":678,"o":"m 522 -1 l 413 -1 l 408 47 q 300 -6 348 -6 l 195 -6 q 100 20 138 -6 q 33 87 61 50 q 11 166 11 119 l 11 597 l 119 597 l 119 169 q 120 154 119 156 q 180 95 141 118 q 197 93 188 93 l 295 93 q 352 120 313 93 q 402 165 390 148 l 402 597 l 511 597 l 511 109 l 522 -1 m 430 888 l 222 698 l 106 729 l 281 888 l 430 888 "},"⁄":{"x_min":0,"x_max":0,"ha":900},"2":{"x_min":5.5625,"x_max":562.546875,"ha":714,"o":"m 562 563 q 534 481 562 518 q 465 423 506 444 l 176 273 q 141 226 141 255 l 141 108 l 551 108 l 551 0 l 26 0 l 26 231 q 125 370 26 320 l 416 520 q 447 568 447 537 l 448 652 q 445 668 448 665 q 411 707 434 686 q 370 729 388 729 l 219 729 l 206 727 q 164 694 188 718 q 129 650 140 670 l 115 622 l 5 654 q 43 725 25 700 q 215 837 127 837 l 372 837 q 465 808 425 837 q 505 772 480 797 q 538 734 530 747 q 562 655 562 698 l 562 563 "},"ü":{"x_min":11.109375,"x_max":522.265625,"ha":678,"o":"m 522 -1 l 413 -1 l 408 47 q 300 -6 348 -6 l 195 -6 q 100 20 138 -6 q 33 87 61 50 q 11 166 11 119 l 11 597 l 119 597 l 119 169 q 120 154 119 156 q 180 95 141 118 q 197 93 188 93 l 295 93 q 352 120 313 93 q 402 165 390 148 l 402 597 l 511 597 l 511 109 l 522 -1 m 428 716 l 308 716 l 308 844 l 428 844 l 428 716 m 219 716 l 100 716 l 100 844 l 219 844 l 219 716 "},"¯":{"x_min":19.453125,"x_max":300.03125,"ha":300,"o":"m 300 722 l 19 722 l 19 840 l 300 840 l 300 722 "},"Z":{"x_min":23.609375,"x_max":562.546875,"ha":696,"o":"m 562 0 l 23 0 l 23 87 l 426 725 l 23 725 l 23 833 l 562 833 l 562 743 l 169 108 l 562 108 l 562 0 "},"u":{"x_min":11.109375,"x_max":522.265625,"ha":678,"o":"m 522 -1 l 413 -1 l 408 47 q 300 -6 348 -6 l 195 -6 q 100 20 138 -6 q 33 87 61 50 q 11 166 11 119 l 11 597 l 119 597 l 119 169 q 120 154 119 156 q 180 95 141 118 q 197 93 188 93 l 295 93 q 352 120 313 93 q 402 165 390 148 l 402 597 l 511 597 l 511 109 l 522 -1 "},"˜":{"x_min":30.5625,"x_max":461.140625,"ha":642,"o":"m 461 754 l 358 734 q 306 763 343 770 l 206 745 q 100 757 150 734 q 30 832 51 780 l 133 851 q 184 822 148 815 l 284 840 q 391 828 341 851 q 461 754 440 805 "},"Ó":{"x_min":25,"x_max":645.890625,"ha":804,"o":"m 645 187 q 625 113 645 144 q 579 61 612 94 q 525 16 545 29 q 444 -6 483 -6 l 225 -6 q 145 16 187 -6 q 90 61 125 29 q 44 113 56 94 q 25 187 25 141 l 25 640 q 44 713 25 686 q 90 766 56 733 q 145 812 125 800 q 225 836 187 836 l 444 836 q 525 812 483 836 q 577 767 544 801 q 625 713 611 733 q 645 640 645 683 l 645 187 m 530 188 l 530 637 q 529 648 530 647 q 490 693 516 668 q 448 726 463 718 l 444 727 q 438 727 441 727 l 231 727 q 225 727 229 727 l 222 726 q 170 685 202 716 q 138 637 138 654 l 138 188 q 171 143 138 175 q 222 102 204 111 l 225 102 q 231 101 229 101 l 438 101 q 444 102 441 101 l 448 102 q 500 142 469 112 q 530 188 530 172 m 490 1089 l 282 899 l 166 930 l 341 1089 l 490 1089 "},"k":{"x_min":12.5,"x_max":538.9375,"ha":625,"o":"m 538 0 l 383 0 l 125 265 l 120 265 l 120 0 l 12 0 l 12 837 l 120 837 l 120 366 l 123 366 l 361 604 l 509 604 l 225 316 l 538 0 "},"ˇ":{"x_min":52.78125,"x_max":522.265625,"ha":589,"o":"m 522 875 l 343 720 l 231 720 l 52 875 l 79 886 l 187 886 l 272 809 l 301 809 l 386 886 l 495 886 l 522 875 "},"Ù":{"x_min":25,"x_max":611.15625,"ha":765,"o":"m 611 187 q 591 115 611 143 q 545 63 579 95 q 491 18 512 30 q 412 -5 450 -5 l 226 -5 q 145 18 187 -5 q 91 63 125 30 q 45 115 58 95 q 25 187 25 145 l 25 833 l 140 833 l 140 190 q 172 144 140 176 q 223 104 205 112 l 227 102 q 233 102 230 102 l 405 102 q 411 102 408 102 l 415 104 q 465 144 433 112 q 497 190 497 176 l 497 833 l 611 833 l 611 187 m 449 930 l 334 899 l 126 1089 l 274 1089 l 449 930 "},"Ÿ":{"x_min":0,"x_max":0,"ha":626},"¢":{"x_min":11.109375,"x_max":537.546875,"ha":640,"o":"m 537 133 q 511 84 529 115 q 445 16 479 41 q 351 -11 406 -11 l 320 -11 l 320 -133 l 212 -133 l 212 -11 l 195 -11 q 100 16 138 -11 q 33 84 63 43 q 11 165 11 116 l 11 433 q 33 512 11 480 q 100 580 63 554 q 195 609 140 609 l 212 609 l 212 748 l 320 748 l 320 609 l 347 609 q 441 580 401 609 q 494 528 466 563 q 534 462 522 493 l 433 430 q 395 482 418 458 q 350 506 372 506 l 320 506 l 320 90 l 354 90 q 370 93 362 90 q 436 168 408 115 l 537 133 m 212 90 l 212 506 l 197 506 q 180 504 188 506 q 120 445 141 481 q 118 430 118 443 l 118 168 q 120 152 118 155 q 180 93 143 115 q 197 90 188 90 l 212 90 "},"ß":{"x_min":8.328125,"x_max":616.71875,"ha":756,"o":"m 616 162 q 591 83 616 119 q 530 20 565 44 q 436 -6 490 -6 l 277 -6 q 183 20 223 -6 l 258 101 q 275 94 272 94 l 434 94 q 472 112 451 94 q 504 150 493 130 q 506 165 506 152 l 506 230 q 496 252 506 243 q 469 262 486 261 l 431 265 l 411 266 q 314 309 354 270 q 275 402 275 348 l 275 436 q 298 515 275 481 q 343 561 311 531 q 379 605 366 581 q 381 619 381 608 l 381 643 l 381 661 q 379 676 381 673 q 352 709 370 691 q 320 734 334 726 q 304 737 315 737 l 226 737 q 174 704 208 737 q 130 654 140 672 q 127 636 127 651 l 127 87 l 113 0 l 8 0 l 20 111 l 20 640 q 41 715 20 687 q 89 770 56 736 q 141 815 122 804 q 223 838 183 838 l 305 838 q 400 811 359 838 q 466 744 438 782 q 490 662 490 711 l 490 641 l 490 618 q 466 540 490 573 q 423 493 448 516 q 387 451 394 463 q 384 436 384 448 l 384 402 q 395 380 384 390 q 420 369 405 370 l 437 368 l 479 363 q 577 320 537 358 q 616 229 616 283 l 616 162 "},"é":{"x_min":11.109375,"x_max":525.046875,"ha":671,"o":"m 525 136 q 485 71 511 104 q 433 20 459 38 q 338 -6 394 -6 l 197 -6 q 101 20 140 -6 q 34 87 62 50 q 11 166 11 119 l 11 430 q 34 509 11 477 q 101 576 62 547 q 197 604 140 604 l 336 604 q 431 576 393 604 q 498 509 470 547 q 520 430 520 477 l 520 258 l 119 258 l 119 169 q 122 154 119 156 q 156 114 133 136 q 197 93 179 93 l 341 93 q 358 97 345 93 q 390 122 372 104 q 415 154 408 140 l 423 169 l 525 136 m 412 358 l 412 427 q 411 443 412 440 q 351 500 391 476 q 334 504 338 504 l 197 504 q 156 482 179 504 q 122 443 133 461 q 119 427 119 440 l 119 358 l 412 358 m 430 888 l 222 698 l 106 729 l 281 888 l 430 888 "},"s":{"x_min":-19.453125,"x_max":518.09375,"ha":651,"o":"m 518 462 l 413 427 q 375 479 398 455 q 331 504 351 504 l 184 504 q 168 501 173 504 q 115 448 136 486 q 113 433 113 447 l 113 394 q 123 372 113 381 q 150 362 133 363 l 379 345 q 476 302 436 341 q 516 209 516 263 l 516 162 q 491 83 516 119 q 430 20 465 44 q 336 -6 390 -6 l 169 -6 q 75 20 115 -6 q -19 136 20 58 l 84 170 q 150 97 112 116 q 166 94 155 94 l 334 94 q 372 112 351 94 q 404 150 393 130 q 406 165 406 152 l 406 212 q 396 234 406 225 q 369 244 386 243 l 140 259 q 43 302 83 263 q 4 395 4 341 l 4 436 q 27 515 4 481 q 88 577 54 554 q 183 605 129 605 l 327 605 q 422 577 381 605 q 518 462 477 538 "},"B":{"x_min":23.609375,"x_max":604.21875,"ha":763,"o":"m 604 180 q 581 102 604 137 q 547 64 573 90 q 508 29 522 38 q 415 0 468 0 l 23 0 l 23 834 l 415 834 q 508 804 466 834 q 548 768 523 793 q 581 732 573 744 q 604 651 604 700 l 604 543 q 588 476 604 501 q 537 416 573 451 q 588 357 573 383 q 604 290 604 331 l 604 180 m 491 545 l 491 650 q 488 663 491 661 q 454 704 477 683 q 413 726 431 726 l 138 726 l 138 469 l 415 469 q 456 491 431 469 q 488 530 480 512 q 491 545 491 533 m 491 183 l 491 288 q 488 302 491 300 q 461 336 480 318 q 429 361 443 354 q 415 362 427 362 l 138 362 l 138 108 l 413 108 q 454 129 431 108 q 488 169 477 151 q 491 183 491 172 "},"…":{"x_min":88.890625,"x_max":765.34375,"ha":953,"o":"m 765 0 l 623 0 l 623 143 l 765 143 l 765 0 m 497 0 l 355 0 l 355 143 l 497 143 l 497 0 m 230 0 l 88 0 l 88 143 l 230 143 l 230 0 "},"?":{"x_min":-11.109375,"x_max":545.875,"ha":645,"o":"m 545 563 q 518 481 545 518 q 450 423 491 444 l 358 377 q 322 329 322 361 l 322 226 l 208 226 l 208 334 q 218 384 208 361 q 238 422 227 406 q 275 454 250 437 q 313 479 300 472 q 359 501 326 486 q 400 520 391 516 q 430 568 430 537 l 431 652 q 429 668 431 665 q 395 707 418 686 q 354 729 372 729 l 202 729 l 190 727 q 147 694 172 718 q 112 650 123 670 l 98 622 l -11 654 q 26 725 8 700 q 198 837 111 837 l 355 837 q 448 808 408 837 q 488 772 462 797 q 522 734 513 747 q 545 655 545 698 l 545 563 m 334 0 l 195 0 l 195 133 l 334 133 l 334 0 "},"H":{"x_min":23.609375,"x_max":609.765625,"ha":785,"o":"m 609 0 l 495 0 l 495 362 l 138 362 l 138 0 l 23 0 l 23 834 l 138 834 l 138 470 l 495 470 l 495 834 l 609 834 l 609 0 "},"î":{"x_min":-162.78125,"x_max":306.703125,"ha":300,"o":"m 131 0 l 23 0 l 23 597 l 131 597 l 131 0 m 306 737 l 280 726 l 171 726 l 87 802 l 58 802 l -26 726 l -136 726 l -162 737 l 16 891 l 127 891 l 306 737 "},"c":{"x_min":11.109375,"x_max":523.65625,"ha":663,"o":"m 523 136 q 497 87 512 108 q 431 20 468 47 q 337 -6 393 -6 l 195 -6 q 100 20 138 -6 q 33 87 61 50 q 11 166 11 119 l 11 430 q 33 509 11 477 q 100 576 61 547 q 195 604 138 604 l 333 604 q 427 576 388 604 q 480 524 452 559 q 520 459 508 488 l 419 427 q 381 479 404 455 q 336 504 358 504 l 197 504 q 180 500 193 504 q 120 443 140 476 q 118 427 118 440 l 118 169 q 120 154 118 156 q 180 97 140 120 q 197 93 193 93 l 340 93 q 356 97 344 93 q 422 169 393 116 l 523 136 "},"¶":{"x_min":15.28125,"x_max":611.15625,"ha":732,"o":"m 611 0 l 497 0 l 497 361 l 445 361 l 445 0 l 338 0 l 338 361 l 206 361 q 113 388 152 361 q 72 425 98 400 q 38 462 47 450 q 15 540 15 498 l 15 651 q 38 730 15 694 q 72 768 47 743 q 113 804 98 793 q 206 833 154 833 l 611 833 l 611 0 m 497 469 l 497 725 l 445 725 l 445 469 l 497 469 m 338 469 l 338 725 l 208 725 q 191 723 194 725 q 133 663 155 702 q 130 648 130 661 l 130 543 q 133 527 130 530 q 165 489 143 509 q 208 469 188 469 l 338 469 "},"−":{"x_min":11.109375,"x_max":495.875,"ha":646,"o":"m 495 294 l 11 294 l 11 393 l 495 393 l 495 294 "},"≠":{"x_min":0,"x_max":0,"ha":1111},"•":{"x_min":52.78125,"x_max":425.03125,"ha":615,"o":"m 425 337 q 397 258 425 290 q 333 204 373 229 q 258 183 300 183 l 220 183 q 145 204 179 183 q 79 259 102 231 q 52 337 52 291 l 52 361 q 80 438 52 404 q 145 494 101 466 q 220 515 176 515 l 258 515 q 333 494 302 515 q 397 440 376 466 q 425 361 425 405 l 425 337 "},"¥":{"x_min":-29.171875,"x_max":622.265625,"ha":675,"o":"m 622 833 l 406 480 l 543 480 l 543 377 l 352 377 l 352 304 l 543 304 l 543 204 l 352 204 l 352 0 l 238 0 l 238 204 l 41 204 l 41 304 l 238 304 l 238 377 l 41 377 l 41 480 l 180 480 l -29 833 l 95 833 l 297 490 q 346 575 295 490 q 447 747 397 661 l 498 833 l 622 833 "},"(":{"x_min":11.109375,"x_max":304.1875,"ha":485,"o":"m 304 0 l 211 0 q 131 23 173 0 q 77 68 111 36 q 30 120 43 101 q 12 194 12 147 l 11 647 q 30 720 11 693 q 77 774 44 740 q 130 819 111 808 q 211 843 172 843 l 304 843 l 304 734 l 218 734 q 211 733 215 734 l 208 733 q 166 700 193 725 q 127 655 140 675 q 126 644 126 654 l 126 195 q 156 149 126 179 q 208 109 187 119 l 211 108 q 218 108 215 108 l 304 108 l 304 0 "},"U":{"x_min":25,"x_max":611.15625,"ha":770,"o":"m 611 187 q 591 115 611 143 q 545 63 579 95 q 491 18 512 30 q 412 -5 450 -5 l 226 -5 q 145 18 187 -5 q 91 63 125 30 q 45 115 58 95 q 25 187 25 145 l 25 833 l 140 833 l 140 190 q 172 144 140 176 q 223 104 205 112 l 227 102 q 233 102 230 102 l 405 102 q 411 102 408 102 l 415 104 q 465 144 433 112 q 497 190 497 176 l 497 833 l 611 833 l 611 187 "},"◊":{"x_min":77.78125,"x_max":576.4375,"ha":778,"o":"m 576 416 q 547 329 576 366 q 510 293 536 315 q 469 261 484 270 q 386 238 434 238 l 269 238 q 186 261 220 238 q 106 329 131 297 q 77 416 77 366 l 77 448 q 106 536 77 498 q 186 604 131 568 q 269 626 220 626 l 386 626 q 469 604 434 626 q 547 536 520 569 q 576 448 576 498 l 576 416 m 470 418 l 470 447 q 468 462 470 456 q 438 496 459 476 q 402 523 418 516 q 387 526 400 526 l 268 526 q 252 523 255 526 q 216 496 237 516 q 187 462 195 476 q 184 447 184 456 l 184 418 q 187 402 184 408 q 216 368 195 388 q 252 341 237 348 q 268 338 255 338 l 387 338 q 402 341 400 338 q 438 368 418 348 q 468 402 459 388 q 470 418 470 408 "},"Ñ":{"x_min":23.609375,"x_max":618.109375,"ha":793,"o":"m 618 0 l 486 0 l 136 636 l 136 0 l 23 0 l 23 832 l 158 832 l 505 190 l 505 832 l 618 832 l 618 0 m 542 946 l 439 926 q 387 955 424 962 l 287 937 q 181 949 231 926 q 111 1024 132 972 l 214 1043 q 265 1014 229 1007 l 365 1032 q 472 1020 422 1043 q 542 946 521 997 "},"F":{"x_min":23.609375,"x_max":533.375,"ha":679,"o":"m 533 725 l 137 725 l 137 470 l 512 470 l 512 362 l 137 362 l 137 0 l 23 0 l 23 833 l 533 833 l 533 725 "},":":{"x_min":59.734375,"x_max":201.40625,"ha":376,"o":"m 201 372 l 59 372 l 59 519 l 201 519 l 201 372 m 201 0 l 59 0 l 59 147 l 201 147 l 201 0 "},"Û":{"x_min":25,"x_max":611.15625,"ha":765,"o":"m 611 187 q 591 115 611 143 q 545 63 579 95 q 491 18 512 30 q 412 -5 450 -5 l 226 -5 q 145 18 187 -5 q 91 63 125 30 q 45 115 58 95 q 25 187 25 145 l 25 833 l 140 833 l 140 190 q 172 144 140 176 q 223 104 205 112 l 227 102 q 233 102 230 102 l 405 102 q 411 102 408 102 l 415 104 q 465 144 433 112 q 497 190 497 176 l 497 833 l 611 833 l 611 187 m 552 938 l 526 927 l 417 927 l 333 1003 l 304 1003 l 219 927 l 109 927 l 83 938 l 262 1092 l 373 1092 l 552 938 "},"*":{"x_min":-12.5,"x_max":534.765625,"ha":643,"o":"m 534 801 l 379 654 l 379 643 l 533 498 l 433 469 l 306 590 l 306 441 l 212 441 l 212 590 l 88 469 l -12 498 l 140 643 l 140 654 l -12 801 l 87 829 l 212 713 l 212 858 l 306 858 l 306 712 l 433 829 l 534 801 "},"†":{"x_min":38.890625,"x_max":340.3125,"ha":463,"o":"m 340 500 l 241 500 l 241 163 l 136 163 l 136 500 l 38 500 l 38 598 l 136 598 l 136 823 l 241 823 l 241 598 l 340 598 l 340 500 "},"°":{"x_min":11.109375,"x_max":383.359375,"ha":519,"o":"m 383 834 q 355 755 383 787 q 291 701 331 726 q 216 680 258 680 l 179 680 q 104 701 137 680 q 37 757 61 729 q 11 834 11 788 l 11 858 q 38 936 11 904 q 104 991 63 965 q 179 1012 137 1012 l 216 1012 q 291 991 258 1012 q 355 937 331 966 q 383 858 383 905 l 383 834 m 290 834 l 290 857 q 287 870 290 868 q 260 903 280 883 q 229 925 240 923 l 218 925 l 176 925 l 163 925 q 125 894 147 916 q 104 857 104 872 l 104 834 q 125 798 104 820 q 163 768 147 776 q 176 766 165 766 l 219 766 q 231 768 230 766 q 287 822 265 784 q 290 834 290 825 "},"V":{"x_min":-16.671875,"x_max":700.0625,"ha":779,"o":"m 700 834 l 416 0 l 266 0 l -16 834 l 104 834 l 341 122 l 579 834 l 700 834 "},"å":{"x_min":-13.890625,"x_max":527.8125,"ha":683,"o":"m 451 822 q 422 738 451 775 q 358 680 397 707 q 284 658 322 658 l 247 658 q 172 680 208 658 q 105 740 131 707 q 79 822 79 775 l 79 848 q 106 930 79 895 q 172 990 134 966 q 247 1012 208 1012 l 284 1012 q 358 991 325 1012 q 422 932 395 966 q 451 848 451 895 l 451 822 m 527 -1 l 419 -1 l 413 47 q 305 -8 352 -8 l 169 -8 q 75 20 115 -8 q 9 87 38 47 q -13 168 -13 120 l -13 194 q 9 275 -13 241 q 75 343 41 318 q 169 370 113 370 l 408 370 l 408 437 q 406 451 408 448 q 347 509 386 487 q 330 513 334 513 l 186 513 q 123 463 165 513 q 100 438 109 447 l 2 469 q 43 536 15 498 q 94 588 72 573 q 190 615 133 615 l 331 615 q 427 587 388 615 q 494 519 469 556 q 516 438 516 487 l 516 111 l 527 -1 m 358 822 l 358 847 q 355 861 358 857 q 327 896 347 875 q 295 919 306 918 l 286 919 l 244 919 l 231 919 q 193 886 213 909 q 172 847 172 863 l 172 822 q 193 784 172 807 q 231 752 215 761 q 244 750 234 750 l 287 750 q 300 752 297 750 q 355 809 331 769 q 358 822 358 813 m 409 168 l 409 268 l 170 268 q 154 265 162 268 q 97 206 116 244 q 94 193 94 204 l 94 169 q 97 155 94 158 q 154 97 116 118 q 170 94 162 94 l 301 94 q 313 95 311 94 q 409 168 386 133 "}," ":{"x_min":0,"x_max":0,"ha":278},"0":{"x_min":11.109375,"x_max":577.828125,"ha":714,"o":"m 577 175 q 554 97 577 131 q 520 59 545 84 q 480 23 495 34 q 387 -5 440 -5 l 200 -5 q 108 23 148 -5 q 68 59 93 33 q 34 97 43 84 q 11 175 11 131 l 11 657 q 34 736 11 700 q 68 774 43 748 q 108 809 94 800 q 200 838 148 838 l 387 838 q 480 809 440 838 q 520 773 495 798 q 554 736 545 748 q 577 657 577 700 l 577 175 m 463 177 l 463 654 q 461 669 463 666 q 427 709 450 687 q 386 730 404 730 l 201 730 q 160 709 183 730 q 126 669 137 687 q 125 654 125 668 l 125 177 q 126 163 125 165 q 160 124 137 145 q 201 102 183 102 l 386 102 q 427 124 404 102 q 461 163 450 145 q 463 177 463 166 "},"”":{"x_min":55.5625,"x_max":391.703125,"ha":542,"o":"m 391 723 l 381 641 l 275 641 l 286 741 l 286 909 l 391 909 l 391 723 m 172 723 l 162 641 l 55 641 l 66 741 l 66 909 l 172 909 l 172 723 "},"¾":{"x_min":-20.828125,"x_max":769.5,"ha":929,"o":"m 704 838 l 247 0 l 125 0 l 581 838 l 704 838 m 769 97 l 701 97 l 701 1 l 611 1 l 611 97 l 405 97 l 405 175 l 619 429 l 701 429 l 701 186 l 769 186 l 769 97 m 366 548 q 344 487 366 515 q 286 437 330 469 q 206 412 252 412 l 144 412 q 95 422 120 412 q 56 442 70 431 q 15 473 41 452 q -20 501 -11 494 l 48 565 q 131 508 125 511 q 136 506 133 506 q 141 508 137 506 l 204 508 q 238 520 218 508 q 265 543 259 531 q 266 544 266 544 q 268 547 266 547 l 266 559 q 252 577 265 572 l 241 581 l 118 581 l 118 670 l 241 670 q 254 676 251 675 q 261 682 256 677 q 265 691 265 686 q 268 705 266 695 l 266 707 q 204 747 226 747 l 141 747 l 131 744 q 48 687 125 741 l -20 754 q 6 775 -15 758 q 40 799 29 791 q 71 818 51 807 q 109 835 91 830 q 144 840 126 840 l 206 840 q 250 832 229 840 q 281 817 270 825 q 316 791 293 809 q 354 753 343 770 q 366 707 366 736 l 366 684 q 348 625 366 648 q 366 569 366 602 l 366 548 m 611 186 l 611 280 l 530 186 l 611 186 "},"@":{"x_min":11.109375,"x_max":636.15625,"ha":767,"o":"m 636 173 l 534 173 l 526 204 q 508 188 515 195 q 462 166 483 166 l 376 166 q 275 195 313 166 q 239 227 261 205 q 209 262 218 250 q 187 340 187 297 l 187 433 q 209 511 187 476 q 239 545 218 523 q 275 577 261 568 q 372 605 312 605 l 512 605 l 512 647 q 511 658 512 657 q 470 704 498 677 q 426 738 441 730 l 422 740 q 416 741 419 741 l 216 741 q 211 740 213 741 l 206 738 q 161 702 191 730 q 119 655 131 675 q 118 644 118 654 l 118 195 q 152 146 118 179 q 206 104 186 113 l 211 102 q 216 101 213 101 l 545 101 l 562 0 l 209 0 q 130 23 172 0 q 76 68 109 36 q 30 120 43 101 q 11 194 11 148 l 11 647 q 29 720 11 694 q 75 773 41 740 q 130 819 109 807 q 209 843 172 843 l 419 843 q 598 720 512 843 q 619 647 619 690 l 619 286 l 636 173 m 512 322 l 512 504 l 370 504 q 354 501 358 504 q 318 472 340 493 q 294 440 295 451 l 294 430 l 294 343 q 295 327 294 329 q 354 270 315 293 q 370 268 358 268 l 438 268 q 445 269 441 268 l 450 270 q 512 322 476 284 "},"ö":{"x_min":11.109375,"x_max":519.484375,"ha":672,"o":"m 519 166 q 497 87 519 119 q 430 20 469 50 q 334 -6 391 -6 l 195 -6 q 100 20 138 -6 q 33 87 61 50 q 11 166 11 119 l 11 430 q 33 509 11 477 q 100 576 61 547 q 195 604 138 604 l 334 604 q 430 576 391 604 q 497 509 469 547 q 519 430 519 477 l 519 166 m 411 158 l 411 169 l 411 427 q 409 443 411 440 q 350 500 390 476 q 333 504 337 504 l 197 504 q 180 500 193 504 q 120 443 140 476 q 118 427 118 440 l 118 169 q 120 154 118 156 q 180 97 140 120 q 197 93 193 93 l 333 93 q 350 97 337 93 q 387 126 365 105 q 411 158 409 147 m 418 716 l 298 716 l 298 844 l 418 844 l 418 716 m 209 716 l 90 716 l 90 844 l 209 844 l 209 716 "},"i":{"x_min":19.453125,"x_max":138.90625,"ha":300,"o":"m 138 722 l 19 722 l 19 840 l 138 840 l 138 722 m 131 0 l 23 0 l 23 607 l 131 607 l 131 0 "},"≤":{"x_min":4.171875,"x_max":516.703125,"ha":643,"o":"m 516 579 l 152 384 l 515 190 l 515 70 l 4 347 l 4 423 l 516 698 l 516 579 "},"Õ":{"x_min":25,"x_max":645.890625,"ha":804,"o":"m 645 187 q 625 113 645 144 q 579 61 612 94 q 525 16 545 29 q 444 -6 483 -6 l 225 -6 q 145 16 187 -6 q 90 61 125 29 q 44 113 56 94 q 25 187 25 141 l 25 640 q 44 713 25 686 q 90 766 56 733 q 145 812 125 800 q 225 836 187 836 l 444 836 q 525 812 483 836 q 577 767 544 801 q 625 713 611 733 q 645 640 645 683 l 645 187 m 530 188 l 530 637 q 529 648 530 647 q 490 693 516 668 q 448 726 463 718 l 444 727 q 438 727 441 727 l 231 727 q 225 727 229 727 l 222 726 q 170 685 202 716 q 138 637 138 654 l 138 188 q 171 143 138 175 q 222 102 204 111 l 225 102 q 231 101 229 101 l 438 101 q 444 102 441 101 l 448 102 q 500 142 469 112 q 530 188 530 172 m 554 932 l 451 912 q 399 941 436 948 l 299 923 q 193 935 243 912 q 123 1010 144 958 l 226 1029 q 277 1000 241 993 l 377 1018 q 484 1006 434 1029 q 554 932 533 983 "},"]":{"x_min":66.671875,"x_max":315.296875,"ha":451,"o":"m 315 0 l 66 0 l 66 100 l 201 100 l 201 733 l 66 733 l 66 833 l 315 833 l 315 0 "},"m":{"x_min":9.71875,"x_max":838.953125,"ha":999,"o":"m 838 0 l 732 0 l 732 427 q 729 443 732 440 q 672 498 709 477 q 652 502 665 502 l 590 502 q 535 476 572 502 q 486 433 498 450 l 486 430 l 486 0 l 379 0 l 379 427 q 376 443 379 440 q 319 500 355 479 q 300 502 315 502 l 236 502 q 228 501 233 502 q 222 500 223 500 q 127 426 187 497 l 127 0 l 19 0 l 19 487 l 9 598 l 118 598 l 123 548 q 231 604 184 604 l 315 604 q 397 577 362 607 q 420 550 405 570 q 438 526 434 530 q 515 583 456 544 q 586 604 554 604 l 679 604 q 750 576 712 604 q 816 509 788 547 q 838 430 838 477 l 838 0 "},"8":{"x_min":11.109375,"x_max":562.546875,"ha":714,"o":"m 562 173 q 538 94 562 130 q 505 56 530 81 q 465 20 480 31 q 373 -8 425 -8 l 200 -8 q 108 20 148 -8 q 68 56 93 31 q 34 94 43 81 q 11 173 11 130 l 11 294 q 27 360 11 334 q 79 420 43 386 q 43 458 55 444 q 20 495 30 472 q 11 547 11 519 l 11 658 q 34 737 11 701 q 68 775 43 750 q 108 811 94 800 q 200 840 148 840 l 373 840 q 465 811 425 840 q 505 775 480 800 q 538 737 530 750 q 562 658 562 701 l 562 547 q 546 481 562 506 q 494 420 530 455 q 530 383 518 397 q 552 345 543 369 q 562 294 562 322 l 562 173 m 448 550 l 448 655 q 445 670 448 668 q 413 711 437 688 q 372 733 388 733 l 201 733 q 160 711 183 733 q 127 670 137 690 q 125 655 125 668 l 125 550 q 127 534 125 537 q 158 497 136 519 q 193 473 180 475 l 201 473 l 372 473 q 413 495 388 473 q 445 534 437 518 q 448 550 448 537 m 448 175 l 448 293 q 445 305 448 302 q 413 344 437 322 q 372 366 388 366 l 201 366 q 161 345 183 366 q 127 305 138 325 q 125 293 125 302 l 125 175 q 127 161 125 163 q 161 120 138 141 q 201 100 183 100 l 372 100 q 413 122 388 100 q 445 161 437 144 q 448 175 448 163 "},"ž":{"x_min":0,"x_max":0,"ha":695},"R":{"x_min":23.609375,"x_max":648.65625,"ha":792,"o":"m 648 0 l 525 0 l 326 347 l 138 347 l 138 0 l 23 0 l 23 833 l 415 833 q 508 804 468 833 q 547 768 522 793 q 581 730 573 743 q 605 651 605 694 l 605 526 q 581 448 605 484 q 547 411 573 436 q 508 375 522 386 q 443 350 472 347 l 648 0 m 490 529 l 490 648 q 488 663 490 662 q 457 700 480 677 q 422 725 434 723 l 413 725 l 138 725 l 138 455 l 413 455 q 454 476 430 455 q 488 513 479 497 q 490 529 490 515 "},"á":{"x_min":-13.890625,"x_max":513.9375,"ha":670,"o":"m 513 -1 l 405 -1 l 400 45 q 291 -8 336 -8 l 169 -8 q 75 19 113 -8 q 9 84 37 47 q -13 163 -13 116 l -13 190 q 9 269 -13 237 q 75 334 37 306 q 169 362 113 362 l 394 362 l 394 427 q 393 441 394 438 q 333 498 373 475 q 316 502 320 502 l 186 502 q 171 499 179 502 q 156 489 163 495 q 144 477 150 483 q 131 463 138 472 q 122 452 125 455 l 104 429 l 2 459 q 43 524 15 488 q 94 576 72 559 q 190 602 133 602 l 318 602 q 413 575 375 602 q 480 509 455 544 q 502 429 502 477 l 502 108 l 513 -1 m 395 165 l 395 262 l 170 262 q 154 259 162 262 q 97 202 118 238 q 94 188 94 200 l 94 165 q 97 151 94 154 q 154 95 116 116 q 170 91 166 91 l 287 91 q 300 94 294 91 q 395 165 369 126 m 430 888 l 222 698 l 106 729 l 281 888 l 430 888 "},"×":{"x_min":0,"x_max":0,"ha":833},"o":{"x_min":11.109375,"x_max":519.484375,"ha":672,"o":"m 519 166 q 497 87 519 119 q 430 20 469 50 q 334 -6 391 -6 l 195 -6 q 100 20 138 -6 q 33 87 61 50 q 11 166 11 119 l 11 430 q 33 509 11 477 q 100 576 61 547 q 195 604 138 604 l 334 604 q 430 576 391 604 q 497 509 469 547 q 519 430 519 477 l 519 166 m 411 158 l 411 169 l 411 427 q 409 443 411 440 q 350 500 390 476 q 333 504 337 504 l 197 504 q 180 500 193 504 q 120 443 140 476 q 118 427 118 440 l 118 169 q 120 154 118 156 q 180 97 140 120 q 197 93 193 93 l 333 93 q 350 97 337 93 q 387 126 365 105 q 411 158 409 147 "},"5":{"x_min":5.5625,"x_max":568.09375,"ha":714,"o":"m 568 175 q 544 95 568 131 q 511 57 536 83 q 470 22 486 31 q 377 -6 430 -6 l 216 -6 q 44 104 129 -6 q 5 177 33 118 l 116 206 l 130 180 q 166 134 141 158 q 208 102 191 111 q 220 101 215 101 l 376 101 q 393 104 384 101 q 425 130 408 112 q 451 162 443 148 q 454 176 454 165 l 454 327 q 451 343 454 340 q 425 375 443 358 q 393 401 408 393 q 376 404 384 404 l 51 404 l 51 834 l 525 834 l 525 726 l 163 726 l 163 511 l 377 511 q 470 481 430 511 q 511 446 486 470 q 544 409 536 422 q 568 330 568 373 l 568 175 "},"õ":{"x_min":11.109375,"x_max":519.484375,"ha":672,"o":"m 519 166 q 497 87 519 119 q 430 20 469 50 q 334 -6 391 -6 l 195 -6 q 100 20 138 -6 q 33 87 61 50 q 11 166 11 119 l 11 430 q 33 509 11 477 q 100 576 61 547 q 195 604 138 604 l 334 604 q 430 576 391 604 q 497 509 469 547 q 519 430 519 477 l 519 166 m 411 158 l 411 169 l 411 427 q 409 443 411 440 q 350 500 390 476 q 333 504 337 504 l 197 504 q 180 500 193 504 q 120 443 140 476 q 118 427 118 440 l 118 169 q 120 154 118 156 q 180 97 140 120 q 197 93 193 93 l 333 93 q 350 97 337 93 q 387 126 365 105 q 411 158 409 147 m 476 754 l 373 734 q 321 763 358 770 l 221 745 q 115 757 165 734 q 45 832 66 780 l 148 851 q 199 822 163 815 l 299 840 q 406 828 356 851 q 476 754 455 805 "},"7":{"x_min":5.5625,"x_max":558.375,"ha":714,"o":"m 558 737 l 194 0 l 63 1 l 422 725 l 5 725 l 5 833 l 558 833 l 558 737 "},"K":{"x_min":23.609375,"x_max":626.4375,"ha":718,"o":"m 626 0 l 476 0 l 137 355 l 137 0 l 23 0 l 23 833 l 137 833 l 137 476 l 475 833 l 625 833 l 227 416 l 626 0 "},",":{"x_min":-1.390625,"x_max":215.296875,"ha":400,"o":"m 215 83 l 120 -120 l -1 -120 l 109 116 l 215 83 "},"d":{"x_min":11.109375,"x_max":529.203125,"ha":685,"o":"m 529 0 l 420 0 l 415 51 q 304 -6 354 -6 l 195 -6 q 101 22 141 -6 q 34 88 62 51 q 11 169 11 122 l 11 436 q 34 516 11 484 q 101 584 65 558 q 195 612 140 612 l 304 612 q 411 559 352 612 l 411 838 l 519 838 l 519 111 l 529 0 m 411 172 l 411 431 q 359 480 398 450 q 300 511 319 511 l 197 511 q 180 508 188 511 q 122 448 144 487 q 119 433 119 445 l 119 172 q 122 156 119 159 q 148 125 130 143 q 180 98 166 106 q 197 94 193 94 l 300 94 q 359 124 319 94 q 411 172 398 154 "},"¨":{"x_min":90.28125,"x_max":418.09375,"ha":504,"o":"m 418 716 l 298 716 l 298 844 l 418 844 l 418 716 m 209 716 l 90 716 l 90 844 l 209 844 l 209 716 "},"Ô":{"x_min":25,"x_max":645.890625,"ha":804,"o":"m 645 187 q 625 113 645 144 q 579 61 612 94 q 525 16 545 29 q 444 -6 483 -6 l 225 -6 q 145 16 187 -6 q 90 61 125 29 q 44 113 56 94 q 25 187 25 141 l 25 640 q 44 713 25 686 q 90 766 56 733 q 145 812 125 800 q 225 836 187 836 l 444 836 q 525 812 483 836 q 577 767 544 801 q 625 713 611 733 q 645 640 645 683 l 645 187 m 530 188 l 530 637 q 529 648 530 647 q 490 693 516 668 q 448 726 463 718 l 444 727 q 438 727 441 727 l 231 727 q 225 727 229 727 l 222 726 q 170 685 202 716 q 138 637 138 654 l 138 188 q 171 143 138 175 q 222 102 204 111 l 225 102 q 231 101 229 101 l 438 101 q 444 102 441 101 l 448 102 q 500 142 469 112 q 530 188 530 172 m 572 938 l 546 927 l 437 927 l 353 1003 l 324 1003 l 239 927 l 129 927 l 103 938 l 282 1092 l 393 1092 l 572 938 "},"E":{"x_min":23.609375,"x_max":534.765625,"ha":710,"o":"m 534 0 l 23 0 l 23 833 l 534 833 l 534 725 l 137 725 l 137 470 l 534 470 l 534 362 l 137 362 l 137 108 l 534 108 l 534 0 "},"Y":{"x_min":-22.21875,"x_max":615.328125,"ha":699,"o":"m 615 833 l 352 375 l 352 0 l 238 0 l 238 375 l -22 833 l 102 833 l 297 490 q 344 575 295 490 q 441 747 393 661 l 491 833 l 615 833 "},"\"":{"x_min":55.5625,"x_max":391.703125,"ha":556,"o":"m 391 723 l 381 641 l 275 641 l 286 741 l 286 909 l 391 909 l 391 723 m 172 723 l 162 641 l 55 641 l 66 741 l 66 909 l 172 909 l 172 723 "},"‹":{"x_min":55.5625,"x_max":372.25,"ha":556,"o":"m 372 172 l 252 141 l 55 337 l 55 377 l 252 576 l 370 541 l 188 366 l 188 350 l 372 172 "},"˙":{"x_min":19.453125,"x_max":138.90625,"ha":300,"o":"m 138 722 l 19 722 l 19 840 l 138 840 l 138 722 "},"ê":{"x_min":11.109375,"x_max":525.046875,"ha":671,"o":"m 525 136 q 485 71 511 104 q 433 20 459 38 q 338 -6 394 -6 l 197 -6 q 101 20 140 -6 q 34 87 62 50 q 11 166 11 119 l 11 430 q 34 509 11 477 q 101 576 62 547 q 197 604 140 604 l 336 604 q 431 576 393 604 q 498 509 470 547 q 520 430 520 477 l 520 258 l 119 258 l 119 169 q 122 154 119 156 q 156 114 133 136 q 197 93 179 93 l 341 93 q 358 97 345 93 q 390 122 372 104 q 415 154 408 140 l 423 169 l 525 136 m 412 358 l 412 427 q 411 443 412 440 q 351 500 391 476 q 334 504 338 504 l 197 504 q 156 482 179 504 q 122 443 133 461 q 119 427 119 440 l 119 358 l 412 358 m 491 737 l 465 726 l 356 726 l 272 802 l 243 802 l 158 726 l 48 726 l 22 737 l 201 891 l 312 891 l 491 737 "},"Ï":{"x_min":-90.71875,"x_max":237.09375,"ha":340,"o":"m 138 0 l 23 0 l 23 833 l 138 833 l 138 0 m 237 908 l 117 908 l 117 1036 l 237 1036 l 237 908 m 28 908 l -90 908 l -90 1036 l 28 1036 l 28 908 "},"„":{"x_min":55.5625,"x_max":391.703125,"ha":542,"o":"m 391 723 l 381 641 l 275 641 l 286 741 l 286 909 l 391 909 l 391 723 m 172 723 l 162 641 l 55 641 l 66 741 l 66 909 l 172 909 l 172 723 "},"Â":{"x_min":-41.671875,"x_max":688.9375,"ha":800,"o":"m 688 0 l 566 0 l 504 186 l 143 186 l 79 0 l -41 0 l 248 837 l 398 836 l 688 0 m 468 293 l 323 716 l 179 293 l 468 293 m 567 934 l 541 923 l 432 923 l 348 999 l 319 999 l 234 923 l 124 923 l 98 934 l 277 1088 l 388 1088 l 567 934 "},"Í":{"x_min":-57.046875,"x_max":266.59375,"ha":340,"o":"m 138 0 l 23 0 l 23 833 l 138 833 l 138 0 m 266 1088 l 58 898 l -57 929 l 117 1088 l 266 1088 "},"´":{"x_min":106.953125,"x_max":430.59375,"ha":515,"o":"m 430 888 l 222 698 l 106 729 l 281 888 l 430 888 "},"ì":{"x_min":-158.65625,"x_max":164.96875,"ha":300,"o":"m 131 0 l 23 0 l 23 597 l 131 597 l 131 0 m 164 729 l 49 698 l -158 888 l -10 888 l 164 729 "},"±":{"x_min":0,"x_max":0,"ha":695},"Ú":{"x_min":25,"x_max":611.15625,"ha":765,"o":"m 611 187 q 591 115 611 143 q 545 63 579 95 q 491 18 512 30 q 412 -5 450 -5 l 226 -5 q 145 18 187 -5 q 91 63 125 30 q 45 115 58 95 q 25 187 25 145 l 25 833 l 140 833 l 140 190 q 172 144 140 176 q 223 104 205 112 l 227 102 q 233 102 230 102 l 405 102 q 411 102 408 102 l 415 104 q 465 144 433 112 q 497 190 497 176 l 497 833 l 611 833 l 611 187 m 474 1089 l 266 899 l 150 930 l 325 1089 l 474 1089 "},"|":{"x_min":20.828125,"x_max":127.78125,"ha":261,"o":"m 127 -130 l 20 -130 l 20 950 l 127 950 l 127 -130 "},"§":{"x_min":4.171875,"x_max":576.4375,"ha":708,"o":"m 576 700 l 475 666 q 408 740 447 718 q 391 743 404 743 l 191 743 q 176 740 181 743 q 137 709 156 729 q 119 673 118 688 q 156 619 122 620 l 359 609 q 465 584 430 607 q 504 551 477 576 q 543 512 531 526 q 572 420 572 475 l 572 406 q 543 316 572 354 q 511 283 536 308 q 569 173 569 241 l 569 155 q 545 81 569 115 q 484 19 522 47 q 390 -9 444 -9 l 191 -9 q 97 19 137 -9 q 31 87 63 44 q 4 134 19 104 l 106 169 q 170 95 134 116 q 188 91 179 91 l 388 91 q 406 95 398 91 q 458 148 438 113 q 461 158 461 156 l 461 176 q 450 199 461 188 q 423 211 438 209 l 213 220 q 129 244 162 223 q 50 316 81 276 q 20 406 20 354 l 20 420 q 77 541 20 487 q 11 673 18 579 q 34 754 6 713 q 95 816 63 793 q 190 845 136 845 l 388 845 q 483 816 443 845 q 536 765 508 800 q 576 700 563 730 m 466 404 l 466 420 q 463 434 466 431 q 434 472 454 451 q 398 501 413 493 q 383 504 393 504 l 208 509 q 194 508 197 511 q 161 479 180 501 q 130 438 141 456 q 127 423 127 436 l 127 408 q 130 393 127 398 q 163 352 140 377 q 197 326 186 326 l 211 326 l 384 316 q 398 318 397 316 q 441 357 415 327 q 466 404 466 387 "},"Ý":{"x_min":0,"x_max":0,"ha":626},"b":{"x_min":9.71875,"x_max":527.8125,"ha":681,"o":"m 527 169 q 504 88 527 122 q 437 22 476 51 q 343 -6 397 -6 l 234 -6 q 123 51 184 -6 l 118 0 l 9 0 l 19 111 l 19 838 l 127 838 l 127 559 q 234 612 186 612 l 343 612 q 437 584 398 612 q 504 516 473 558 q 527 436 527 484 l 527 169 m 419 172 l 419 433 q 416 448 419 445 q 358 508 394 487 q 341 511 350 511 l 238 511 q 179 481 219 511 q 127 433 140 451 l 127 173 q 179 125 140 155 q 238 94 219 94 l 341 94 q 358 98 345 94 q 390 125 372 106 q 416 156 408 143 q 419 172 419 159 "},"q":{"x_min":11.109375,"x_max":529.203125,"ha":678,"o":"m 529 593 l 519 481 l 519 -245 l 411 -245 l 411 33 q 304 -19 352 -19 l 195 -19 q 101 8 140 -19 q 34 76 65 34 q 11 156 11 108 l 11 423 q 34 504 11 470 q 101 570 62 541 q 195 600 141 600 l 304 600 q 415 541 354 600 l 420 593 l 529 593 m 411 159 l 411 419 q 359 468 398 437 q 300 498 319 498 l 197 498 q 180 494 193 498 q 148 468 166 486 q 122 436 130 450 q 119 420 119 433 l 119 159 q 122 144 119 147 q 180 84 144 105 q 197 81 188 81 l 300 81 q 359 111 319 81 q 411 159 398 141 "},"Ω":{"x_min":0,"x_max":0,"ha":695},"Ö":{"x_min":25,"x_max":645.890625,"ha":804,"o":"m 645 187 q 625 113 645 144 q 579 61 612 94 q 525 16 545 29 q 444 -6 483 -6 l 225 -6 q 145 16 187 -6 q 90 61 125 29 q 44 113 56 94 q 25 187 25 141 l 25 640 q 44 713 25 686 q 90 766 56 733 q 145 812 125 800 q 225 836 187 836 l 444 836 q 525 812 483 836 q 577 767 544 801 q 625 713 611 733 q 645 640 645 683 l 645 187 m 530 188 l 530 637 q 529 648 530 647 q 490 693 516 668 q 448 726 463 718 l 444 727 q 438 727 441 727 l 231 727 q 225 727 229 727 l 222 726 q 170 685 202 716 q 138 637 138 654 l 138 188 q 171 143 138 175 q 222 102 204 111 l 225 102 q 231 101 229 101 l 438 101 q 444 102 441 101 l 448 102 q 500 142 469 112 q 530 188 530 172 m 494 898 l 374 898 l 374 1026 l 494 1026 l 494 898 m 285 898 l 166 898 l 166 1026 l 285 1026 l 285 898 "},"ﬂ":{"x_min":0,"x_max":0,"ha":668},"z":{"x_min":13.890625,"x_max":494.484375,"ha":631,"o":"m 494 0 l 25 0 l 25 84 l 334 494 l 13 494 l 13 597 l 479 597 l 479 511 l 169 102 l 494 102 l 494 0 "},"™":{"x_min":23.609375,"x_max":720.890625,"ha":857,"o":"m 720 441 l 626 440 l 626 687 l 559 575 l 494 575 l 437 682 l 437 440 l 341 440 l 341 836 l 461 836 l 527 709 l 601 836 l 720 836 l 720 441 m 325 748 l 227 748 l 227 440 l 131 440 l 131 747 l 23 747 l 23 836 l 325 836 l 325 748 "},"ã":{"x_min":-13.890625,"x_max":513.9375,"ha":670,"o":"m 513 -1 l 405 -1 l 400 45 q 291 -8 336 -8 l 169 -8 q 75 19 113 -8 q 9 84 37 47 q -13 163 -13 116 l -13 190 q 9 269 -13 237 q 75 334 37 306 q 169 362 113 362 l 394 362 l 394 427 q 393 441 394 438 q 333 498 373 475 q 316 502 320 502 l 186 502 q 171 499 179 502 q 156 489 163 495 q 144 477 150 483 q 131 463 138 472 q 122 452 125 455 l 104 429 l 2 459 q 43 524 15 488 q 94 576 72 559 q 190 602 133 602 l 318 602 q 413 575 375 602 q 480 509 455 544 q 502 429 502 477 l 502 108 l 513 -1 m 395 165 l 395 262 l 170 262 q 154 259 162 262 q 97 202 118 238 q 94 188 94 200 l 94 165 q 97 151 94 154 q 154 95 116 116 q 170 91 166 91 l 287 91 q 300 94 294 91 q 395 165 369 126 m 461 754 l 358 734 q 306 763 343 770 l 206 745 q 100 757 150 734 q 30 832 51 780 l 133 851 q 184 822 148 815 l 284 840 q 391 828 341 851 q 461 754 440 805 "},"æ":{"x_min":-16.671875,"x_max":927.859375,"ha":1058,"o":"m 927 141 q 834 27 887 63 q 740 0 795 0 l 584 0 q 454 59 511 0 q 323 0 394 0 l 295 0 l 173 0 l 166 0 q 72 27 111 0 q 6 94 34 52 q -16 170 -16 127 l -16 198 q 6 276 -16 243 q 72 341 33 315 q 166 370 112 370 l 400 370 l 400 436 l 400 441 q 377 475 400 454 q 338 506 355 497 q 322 511 330 511 l 183 509 q 168 506 173 509 q 101 434 130 488 l 0 468 q 27 513 15 498 q 93 583 61 559 q 187 611 131 611 l 323 611 q 454 550 395 611 q 584 609 511 609 l 737 609 q 832 581 793 609 q 868 550 847 572 q 898 515 890 529 q 922 436 922 481 l 922 265 l 508 265 l 508 173 l 508 162 q 536 129 516 148 q 569 104 555 111 q 586 100 577 100 l 743 100 q 759 104 751 100 q 825 176 795 123 l 927 141 m 813 365 l 813 434 q 812 448 813 447 q 752 505 790 486 q 736 509 744 509 l 586 509 q 569 505 577 509 q 533 477 556 498 q 508 447 509 456 l 508 440 l 508 437 l 508 365 l 813 365 m 400 176 l 400 269 l 168 269 q 126 250 148 269 q 93 211 104 230 q 91 195 91 209 l 91 173 q 93 159 91 161 q 122 124 101 144 q 156 102 143 104 q 169 100 161 102 l 322 100 q 338 104 330 100 q 371 129 352 111 q 398 162 390 147 q 400 176 400 163 "},"®":{"x_min":11.109375,"x_max":766.734375,"ha":903,"o":"m 766 194 q 745 120 766 151 q 700 68 733 101 q 645 23 666 36 q 551 0 604 0 l 209 0 q 130 23 172 0 q 76 68 109 36 q 30 120 43 101 q 11 194 11 148 l 11 647 q 30 719 11 691 q 77 774 44 740 q 130 819 111 808 q 209 843 172 843 l 565 843 q 645 819 604 843 q 698 774 665 808 q 745 719 732 740 q 766 647 766 688 l 766 194 m 657 644 q 654 655 657 650 q 613 703 641 676 q 568 737 584 730 l 563 738 q 558 738 561 738 l 216 738 q 211 738 213 738 l 206 737 q 163 702 191 729 q 122 655 134 675 q 120 644 120 654 l 120 195 q 154 147 120 180 q 206 105 187 115 l 211 104 q 216 102 213 102 l 558 102 q 563 104 561 102 l 568 105 q 622 147 588 115 q 655 195 655 179 l 657 644 m 587 491 q 575 406 587 425 q 529 362 562 390 q 472 325 495 334 l 569 161 l 450 161 l 361 312 l 309 312 l 309 161 l 200 161 l 200 677 l 408 677 q 501 648 461 677 q 541 613 516 637 q 575 576 566 588 q 587 506 587 556 l 587 491 m 490 486 l 490 501 q 487 515 490 512 q 425 570 472 545 q 408 573 416 573 l 309 573 l 309 415 l 408 415 q 452 435 426 415 q 487 470 479 455 q 490 486 490 473 "},"É":{"x_min":23.609375,"x_max":534.765625,"ha":710,"o":"m 534 0 l 23 0 l 23 833 l 534 833 l 534 725 l 137 725 l 137 470 l 534 470 l 534 362 l 137 362 l 137 108 l 534 108 l 534 0 m 462 1087 l 254 897 l 138 928 l 313 1087 l 462 1087 "},"~":{"x_min":30.5625,"x_max":461.140625,"ha":642,"o":"m 461 754 l 358 734 q 306 763 343 770 l 206 745 q 100 757 150 734 q 30 832 51 780 l 133 851 q 184 822 148 815 l 284 840 q 391 828 341 851 q 461 754 440 805 "},"³":{"x_min":-20.828125,"x_max":366.703125,"ha":435,"o":"m 366 559 q 344 500 366 526 q 286 452 334 488 q 206 429 254 429 l 144 429 q 95 438 120 429 q 56 457 70 448 q 15 487 43 466 q -20 513 -12 508 l 48 576 q 84 551 54 573 q 131 520 113 529 l 136 520 l 141 520 l 204 520 q 238 531 218 520 q 265 554 258 543 q 266 555 266 555 q 268 558 266 558 l 266 569 q 252 587 265 581 l 241 591 l 118 591 l 118 677 l 241 677 q 265 693 262 687 q 268 709 266 698 l 266 712 q 240 737 261 725 q 204 750 219 750 l 141 750 l 131 748 q 84 718 113 740 q 48 693 54 695 l -20 757 q 7 777 -15 761 q 41 801 30 794 q 72 819 52 808 q 109 835 91 830 q 144 840 126 840 l 206 840 q 316 794 252 840 q 366 711 366 758 l 366 691 q 348 633 366 655 q 366 579 366 611 l 366 559 "},"¡":{"x_min":25,"x_max":152.796875,"ha":318,"o":"m 152 702 l 25 702 l 25 827 l 152 827 l 152 702 m 143 0 l 33 0 l 33 594 l 143 594 l 143 0 "},"[":{"x_min":11.109375,"x_max":259.75,"ha":424,"o":"m 259 0 l 11 0 l 11 833 l 259 833 l 259 733 l 125 733 l 125 100 l 259 100 l 259 0 "},"L":{"x_min":23.609375,"x_max":526.4375,"ha":660,"o":"m 526 0 l 23 0 l 23 833 l 137 833 l 137 108 l 526 108 l 526 0 "}," ":{"x_min":0,"x_max":0,"ha":375},"∑":{"x_min":0,"x_max":0,"ha":695},"%":{"x_min":25,"x_max":887.578125,"ha":1010,"o":"m 887 166 q 866 94 887 125 q 798 26 836 52 q 732 7 783 15 q 651 0 680 0 l 620 0 q 607 2 611 0 q 605 6 604 4 q 604 15 607 9 q 594 26 602 20 q 557 60 580 37 q 527 94 534 83 q 505 166 505 125 l 505 268 q 527 340 505 309 q 557 374 534 351 q 594 408 580 397 q 682 434 632 434 l 712 434 q 798 408 761 434 q 866 340 836 381 q 887 268 887 309 l 887 166 m 747 855 l 281 0 l 156 0 l 623 855 l 747 855 m 406 588 q 386 515 406 545 q 318 448 356 476 q 230 422 280 422 l 200 422 q 113 448 151 422 q 45 515 75 476 q 25 588 25 545 l 25 688 q 45 761 25 730 q 76 795 52 772 q 113 830 100 819 q 200 857 151 857 l 230 857 q 318 830 280 857 q 355 795 331 819 q 386 761 379 772 q 406 688 406 730 l 406 588 m 787 163 l 787 268 q 784 281 787 276 q 751 318 776 297 q 711 338 726 338 l 683 338 q 642 318 668 338 q 608 281 616 297 q 607 268 607 280 l 607 163 q 608 151 607 152 q 634 122 613 140 q 669 97 654 105 q 683 94 672 94 l 711 94 q 751 115 726 94 q 784 151 776 136 q 787 163 787 156 m 305 577 l 305 587 l 305 691 q 304 704 305 702 q 279 732 298 715 q 244 758 259 750 q 230 761 241 761 l 201 761 q 187 758 190 761 q 152 732 172 750 q 127 704 133 715 q 125 691 125 698 l 125 587 q 127 575 125 580 q 153 545 133 562 q 187 519 173 527 q 201 518 188 518 l 230 518 q 244 519 243 518 q 281 547 258 526 q 305 577 304 568 "},"P":{"x_min":23.609375,"x_max":605.609375,"ha":739,"o":"m 605 533 q 581 455 605 491 q 547 418 573 443 q 506 381 522 393 q 415 354 468 354 l 137 354 l 137 0 l 23 0 l 23 833 l 415 833 q 506 804 466 833 q 547 768 522 793 q 581 730 573 743 q 605 651 605 694 l 605 533 m 490 536 l 490 648 q 487 663 490 661 q 456 701 479 679 q 422 725 434 723 l 413 725 l 137 725 l 137 462 l 413 462 q 454 482 430 462 q 487 520 477 502 q 490 536 490 523 "},"∏":{"x_min":0,"x_max":0,"ha":695},"À":{"x_min":-41.671875,"x_max":688.9375,"ha":800,"o":"m 688 0 l 566 0 l 504 186 l 143 186 l 79 0 l -41 0 l 248 837 l 398 836 l 688 0 m 468 293 l 323 716 l 179 293 l 468 293 m 453 928 l 338 897 l 130 1087 l 278 1087 l 453 928 "},"_":{"x_min":4.171875,"x_max":540.328125,"ha":642,"o":"m 540 -120 l 4 -120 l 4 -20 l 540 -20 l 540 -120 "},"ñ":{"x_min":9.71875,"x_max":520.875,"ha":681,"o":"m 520 0 l 412 0 l 412 427 q 411 443 412 440 q 351 501 390 479 q 334 504 343 504 l 236 504 q 179 476 218 504 q 129 431 141 448 l 129 0 l 20 0 l 20 487 l 9 598 l 118 598 l 123 550 q 231 604 183 604 l 336 604 q 431 576 393 604 q 498 509 470 547 q 520 430 520 477 l 520 0 m 493 754 l 390 734 q 338 763 375 770 l 238 745 q 132 757 182 734 q 62 832 83 780 l 165 851 q 216 822 180 815 l 316 840 q 423 828 373 851 q 493 754 472 805 "},"+":{"x_min":33.34375,"x_max":555.59375,"ha":714,"o":"m 555 295 l 347 295 l 347 101 l 241 101 l 241 295 l 33 295 l 33 395 l 241 395 l 241 590 l 347 590 l 347 395 l 555 395 l 555 295 "},"‚":{"x_min":55.5625,"x_max":172.234375,"ha":315,"o":"m 172 723 l 162 641 l 55 641 l 66 741 l 66 909 l 172 909 l 172 723 "},"½":{"x_min":47.21875,"x_max":846.21875,"ha":1006,"o":"m 845 279 q 757 176 851 204 l 593 127 q 573 100 573 119 l 573 98 l 843 98 l 843 4 l 473 4 l 473 105 q 565 218 473 191 l 716 263 q 727 268 718 263 q 741 277 737 273 q 745 287 745 280 l 745 297 l 745 300 q 718 324 738 312 q 683 336 697 336 l 620 336 l 615 336 l 611 336 q 526 279 600 330 l 458 343 q 493 370 463 347 q 536 402 523 394 q 575 421 550 411 q 623 431 600 431 l 686 431 q 765 405 730 431 q 822 356 808 373 q 832 343 827 350 q 838 331 836 336 q 841 318 840 326 q 843 307 843 311 q 845 293 844 304 q 845 279 845 283 m 704 838 l 247 0 l 125 0 l 581 838 l 704 838 m 298 412 l 47 412 l 47 500 l 129 500 l 129 751 l 47 751 l 47 840 l 219 840 l 219 500 l 298 500 l 298 412 "},"Æ":{"x_min":-41.671875,"x_max":702.828125,"ha":878,"o":"m 702 1 l 329 0 l 329 1 l 316 1 l 316 184 l 143 184 l 80 0 l -41 0 l 248 834 l 404 834 l 404 833 l 702 833 l 702 725 l 430 725 l 430 470 l 702 470 l 702 362 l 430 362 l 430 109 l 702 109 l 702 1 m 316 693 l 179 293 l 315 293 l 316 693 "},"Ë":{"x_min":23.609375,"x_max":534.765625,"ha":710,"o":"m 534 0 l 23 0 l 23 833 l 534 833 l 534 725 l 137 725 l 137 470 l 534 470 l 534 362 l 137 362 l 137 108 l 534 108 l 534 0 m 454 901 l 334 901 l 334 1029 l 454 1029 l 454 901 m 245 901 l 126 901 l 126 1029 l 245 1029 l 245 901 "},"'":{"x_min":55.5625,"x_max":172.234375,"ha":329,"o":"m 172 723 l 162 641 l 55 641 l 66 741 l 66 909 l 172 909 l 172 723 "},"ª":{"x_min":25,"x_max":383.359375,"ha":531,"o":"m 383 448 l 291 448 l 284 470 q 230 447 252 447 l 162 447 q 100 466 129 447 q 44 522 70 484 q 25 587 25 550 l 25 697 q 44 762 25 734 q 100 816 66 794 q 184 840 134 840 l 366 840 l 366 541 l 383 448 m 272 572 l 272 754 l 183 754 q 170 752 172 754 q 137 727 155 745 q 119 694 119 708 l 119 590 q 137 559 119 577 q 170 533 155 541 q 183 530 173 530 l 209 530 q 219 531 216 530 q 272 572 244 544 "},"Œ":{"x_min":25,"x_max":738.953125,"ha":882,"o":"m 738 0 l 222 0 q 188 8 218 1 q 145 23 159 15 q 90 68 125 36 q 44 120 56 101 q 25 194 25 148 l 25 645 q 44 711 25 682 q 90 763 56 730 q 145 809 125 797 q 188 825 159 818 q 222 833 218 832 l 738 833 l 738 725 l 480 725 l 480 470 l 738 470 l 738 362 l 480 362 l 480 108 l 738 108 l 738 0 m 355 108 l 355 723 l 231 723 q 225 722 229 723 l 222 722 q 168 686 198 711 q 138 643 138 661 l 138 195 q 171 150 138 181 q 222 109 204 118 l 225 108 q 231 108 229 108 l 355 108 "},"˛":{"x_min":209.734375,"x_max":415.3125,"ha":564,"o":"m 415 -244 l 293 -244 l 209 -91 l 315 -59 l 415 -244 "},"ð":{"x_min":0,"x_max":0,"ha":645},"T":{"x_min":-13.890625,"x_max":575.046875,"ha":700,"o":"m 575 727 l 336 727 l 336 0 l 223 0 l 223 727 l -13 727 l -13 833 l 575 833 l 575 727 "},"j":{"x_min":-138.90625,"x_max":156.953125,"ha":313,"o":"m 156 722 l 37 722 l 37 840 l 156 840 l 156 722 m 150 -62 q 126 -143 150 -109 q 59 -211 95 -184 q -34 -238 19 -238 l -138 -238 l -138 -136 l -36 -136 q -19 -134 -20 -136 q 37 -75 16 -113 q 40 -59 40 -72 l 40 604 l 150 604 l 150 -62 "},"1":{"x_min":113.890625,"x_max":373.640625,"ha":714,"o":"m 373 0 l 259 0 l 259 725 l 113 725 l 113 834 l 373 834 l 373 0 "},"›":{"x_min":69.453125,"x_max":386.140625,"ha":556,"o":"m 386 337 l 188 141 l 69 172 l 252 350 l 252 366 l 70 541 l 188 576 l 386 377 l 386 337 "},"ı":{"x_min":23.609375,"x_max":131.953125,"ha":293,"o":"m 131 0 l 23 0 l 23 597 l 131 597 l 131 0 "},"ä":{"x_min":-13.890625,"x_max":513.9375,"ha":670,"o":"m 513 -1 l 405 -1 l 400 45 q 291 -8 336 -8 l 169 -8 q 75 19 113 -8 q 9 84 37 47 q -13 163 -13 116 l -13 190 q 9 269 -13 237 q 75 334 37 306 q 169 362 113 362 l 394 362 l 394 427 q 393 441 394 438 q 333 498 373 475 q 316 502 320 502 l 186 502 q 171 499 179 502 q 156 489 163 495 q 144 477 150 483 q 131 463 138 472 q 122 452 125 455 l 104 429 l 2 459 q 43 524 15 488 q 94 576 72 559 q 190 602 133 602 l 318 602 q 413 575 375 602 q 480 509 455 544 q 502 429 502 477 l 502 108 l 513 -1 m 395 165 l 395 262 l 170 262 q 154 259 162 262 q 97 202 118 238 q 94 188 94 200 l 94 165 q 97 151 94 154 q 154 95 116 116 q 170 91 166 91 l 287 91 q 300 94 294 91 q 395 165 369 126 m 418 716 l 298 716 l 298 844 l 418 844 l 418 716 m 209 716 l 90 716 l 90 844 l 209 844 l 209 716 "},"<":{"x_min":-37.5,"x_max":859.796875,"ha":996,"o":"m 859 366 l 161 366 l 544 0 l 397 0 l -37 418 l 397 837 l 544 837 l 156 470 l 859 470 l 859 366 "},"£":{"x_min":13.890625,"x_max":677.828125,"ha":824,"o":"m 677 184 q 640 113 658 138 q 468 1 555 1 l 70 1 l 70 209 l 13 209 l 13 309 l 70 309 l 70 380 l 13 380 l 13 483 l 70 483 l 70 640 q 90 712 70 684 q 137 766 104 732 q 190 811 170 800 q 269 834 231 834 l 461 834 l 461 726 l 276 726 q 269 725 273 726 l 266 725 q 225 691 251 716 q 186 647 198 666 l 186 605 l 186 483 l 515 483 l 515 380 l 186 380 l 186 309 l 515 309 l 515 209 l 186 209 l 186 109 l 463 109 l 475 111 q 518 144 493 120 q 554 188 543 168 l 568 216 l 677 184 "},"¹":{"x_min":-2.78125,"x_max":248.625,"ha":435,"o":"m 248 429 l -2 429 l -2 512 l 79 512 l 79 755 l -2 755 l -2 840 l 169 840 l 169 512 l 248 512 l 248 429 "},"t":{"x_min":-37.5,"x_max":352.8125,"ha":475,"o":"m 352 506 l 169 506 l 169 179 q 172 161 169 163 q 227 105 193 126 q 247 101 236 101 l 351 101 l 351 0 l 245 0 q 151 27 190 0 q 84 95 115 54 q 61 176 61 129 l 61 506 l -37 506 l -37 609 l 61 609 l 61 840 l 169 840 l 169 609 l 352 609 l 352 506 "},"¬":{"x_min":0,"x_max":0,"ha":833},"ù":{"x_min":11.109375,"x_max":522.265625,"ha":678,"o":"m 522 -1 l 413 -1 l 408 47 q 300 -6 348 -6 l 195 -6 q 100 20 138 -6 q 33 87 61 50 q 11 166 11 119 l 11 597 l 119 597 l 119 169 q 120 154 119 156 q 180 95 141 118 q 197 93 188 93 l 295 93 q 352 120 313 93 q 402 165 390 148 l 402 597 l 511 597 l 511 109 l 522 -1 m 381 729 l 266 698 l 58 888 l 206 888 l 381 729 "},"W":{"x_min":6.9375,"x_max":975.078125,"ha":1067,"o":"m 975 834 l 783 0 l 640 0 l 491 647 l 341 0 l 198 0 l 6 834 l 125 834 l 270 151 l 425 834 l 556 834 l 711 151 l 857 834 l 975 834 "},"ï":{"x_min":-91.71875,"x_max":236.09375,"ha":300,"o":"m 131 0 l 23 0 l 23 597 l 131 597 l 131 0 m 236 716 l 116 716 l 116 844 l 236 844 l 236 716 m 27 716 l -91 716 l -91 844 l 27 844 l 27 716 "},">":{"x_min":-16.671875,"x_max":880.625,"ha":996,"o":"m 880 418 l 445 0 l 298 0 l 682 366 l -16 366 l -16 470 l 686 470 l 298 837 l 445 837 l 880 418 "},"v":{"x_min":-44.453125,"x_max":498.65625,"ha":620,"o":"m 498 597 l 293 0 l 163 0 l -44 597 l 72 597 l 227 127 l 383 597 l 498 597 "},"û":{"x_min":11.109375,"x_max":522.265625,"ha":678,"o":"m 522 -1 l 413 -1 l 408 47 q 300 -6 348 -6 l 195 -6 q 100 20 138 -6 q 33 87 61 50 q 11 166 11 119 l 11 597 l 119 597 l 119 169 q 120 154 119 156 q 180 95 141 118 q 197 93 188 93 l 295 93 q 352 120 313 93 q 402 165 390 148 l 402 597 l 511 597 l 511 109 l 522 -1 m 495 737 l 469 726 l 360 726 l 276 802 l 247 802 l 162 726 l 52 726 l 26 737 l 205 891 l 316 891 l 495 737 "},"Ò":{"x_min":25,"x_max":645.890625,"ha":804,"o":"m 645 187 q 625 113 645 144 q 579 61 612 94 q 525 16 545 29 q 444 -6 483 -6 l 225 -6 q 145 16 187 -6 q 90 61 125 29 q 44 113 56 94 q 25 187 25 141 l 25 640 q 44 713 25 686 q 90 766 56 733 q 145 812 125 800 q 225 836 187 836 l 444 836 q 525 812 483 836 q 577 767 544 801 q 625 713 611 733 q 645 640 645 683 l 645 187 m 530 188 l 530 637 q 529 648 530 647 q 490 693 516 668 q 448 726 463 718 l 444 727 q 438 727 441 727 l 231 727 q 225 727 229 727 l 222 726 q 170 685 202 716 q 138 637 138 654 l 138 188 q 171 143 138 175 q 222 102 204 111 l 225 102 q 231 101 229 101 l 438 101 q 444 102 441 101 l 448 102 q 500 142 469 112 q 530 188 530 172 m 477 930 l 362 899 l 154 1089 l 302 1089 l 477 930 "},"&":{"x_min":11.109375,"x_max":629.21875,"ha":782,"o":"m 629 276 l 587 276 l 587 180 q 563 102 587 137 q 530 64 555 90 q 490 29 505 38 q 395 0 450 0 l 200 0 q 108 29 148 0 q 68 65 93 40 q 34 102 43 90 q 11 180 11 137 l 11 295 q 21 347 11 323 q 43 384 31 370 q 79 420 54 397 q 27 480 43 454 q 11 547 11 506 l 11 655 q 34 736 11 700 q 68 772 43 748 q 108 808 93 797 q 200 838 150 838 l 302 838 q 473 725 386 838 q 513 652 495 693 l 402 623 l 388 651 q 353 695 377 672 q 311 729 329 719 q 298 730 304 730 l 201 730 q 160 708 184 730 q 127 668 136 686 q 125 652 125 665 l 125 550 q 127 534 125 537 q 160 495 136 518 q 201 473 184 473 l 366 475 l 366 366 l 201 366 q 160 345 184 366 q 127 306 136 323 q 125 293 125 304 l 125 183 q 127 169 125 172 q 160 130 136 152 q 201 108 184 108 l 395 108 q 436 129 413 108 q 470 169 459 151 q 473 183 473 172 l 473 387 l 629 387 l 629 276 "},"˝":{"x_min":20.828125,"x_max":600.046875,"ha":515,"o":"m 600 888 l 391 698 l 276 729 l 451 888 l 600 888 m 344 888 l 136 698 l 20 729 l 195 888 l 344 888 "},"Ð":{"x_min":0,"x_max":0,"ha":761},"I":{"x_min":23.609375,"x_max":138.90625,"ha":310,"o":"m 138 0 l 23 0 l 23 833 l 138 833 l 138 0 "},"G":{"x_min":23.609375,"x_max":663.9375,"ha":822,"o":"m 663 2 l 552 2 q 547 29 551 12 q 543 51 543 47 q 530 41 540 50 q 517 30 520 33 q 504 21 513 27 q 490 12 495 15 q 475 6 484 9 q 457 1 466 2 q 438 0 448 0 l 225 0 q 144 23 186 0 q 90 68 123 36 q 44 120 56 101 q 23 194 23 151 l 23 647 q 44 720 23 690 q 91 774 58 740 q 144 819 125 808 q 225 843 186 843 l 438 843 q 611 729 523 843 q 650 659 627 708 l 538 627 l 525 655 q 488 700 513 676 q 445 733 463 723 q 434 734 440 734 l 230 734 q 225 733 227 734 l 220 733 q 179 700 205 725 q 140 655 152 675 q 138 644 138 654 l 138 195 q 169 149 138 179 q 220 109 200 119 l 225 108 q 231 108 229 108 l 431 108 q 438 108 434 108 l 441 109 q 494 150 462 119 q 526 195 526 180 l 526 366 l 336 366 l 336 476 l 640 476 l 640 197 q 663 2 640 148 "},"`":{"x_min":58.34375,"x_max":381.96875,"ha":529,"o":"m 381 729 l 266 698 l 58 888 l 206 888 l 381 729 "},"·":{"x_min":88.890625,"x_max":230.578125,"ha":404,"o":"m 230 294 l 88 294 l 88 402 l 230 402 l 230 294 "},"r":{"x_min":9.71875,"x_max":497.265625,"ha":578,"o":"m 497 459 l 395 427 q 357 479 380 455 q 312 504 334 504 l 268 504 l 237 504 q 179 475 218 504 q 127 429 140 447 l 127 0 l 19 0 l 19 487 l 9 598 l 118 598 l 123 550 q 233 604 180 604 l 268 604 l 309 604 q 404 576 365 604 q 456 524 429 559 q 497 459 484 488 "},"¿":{"x_min":15.28125,"x_max":586.15625,"ha":646,"o":"m 365 694 l 225 694 l 225 829 l 365 829 l 365 694 m 586 176 q 547 104 559 120 q 375 -8 462 -8 l 205 -8 q 111 20 151 -8 q 71 56 97 31 q 37 94 45 81 q 15 173 15 129 l 15 265 q 20 307 15 287 q 39 344 26 327 q 63 372 52 361 q 96 397 73 383 q 129 416 119 411 q 168 436 140 422 q 202 452 195 450 q 237 500 237 469 l 237 602 l 352 602 l 352 494 q 322 407 352 440 q 240 348 291 375 q 227 341 236 345 q 211 334 218 337 q 198 327 204 330 q 163 308 166 309 q 129 261 129 284 l 127 176 q 130 161 127 163 q 190 102 151 125 q 206 100 198 100 l 372 100 l 383 101 q 426 134 401 111 q 462 179 451 158 q 476 205 466 184 l 586 176 "},"ý":{"x_min":0,"x_max":0,"ha":582},"x":{"x_min":-48.609375,"x_max":498.65625,"ha":624,"o":"m 498 0 l 369 0 l 225 216 l 80 0 l -48 0 l 161 306 l -41 595 l 90 595 l 225 391 l 355 595 l 487 595 l 288 306 l 498 0 "},"è":{"x_min":11.109375,"x_max":525.046875,"ha":671,"o":"m 525 136 q 485 71 511 104 q 433 20 459 38 q 338 -6 394 -6 l 197 -6 q 101 20 140 -6 q 34 87 62 50 q 11 166 11 119 l 11 430 q 34 509 11 477 q 101 576 62 547 q 197 604 140 604 l 336 604 q 431 576 393 604 q 498 509 470 547 q 520 430 520 477 l 520 258 l 119 258 l 119 169 q 122 154 119 156 q 156 114 133 136 q 197 93 179 93 l 341 93 q 358 97 345 93 q 390 122 372 104 q 415 154 408 140 l 423 169 l 525 136 m 412 358 l 412 427 q 411 443 412 440 q 351 500 391 476 q 334 504 338 504 l 197 504 q 156 482 179 504 q 122 443 133 461 q 119 427 119 440 l 119 358 l 412 358 m 381 729 l 266 698 l 58 888 l 206 888 l 381 729 "},"º":{"x_min":25,"x_max":406.984375,"ha":557,"o":"m 406 598 q 386 527 406 555 q 318 463 361 494 q 230 438 283 438 l 200 438 q 113 463 148 438 q 45 527 70 494 q 25 598 25 555 l 25 694 q 45 765 25 737 q 77 799 52 776 q 113 832 101 822 q 200 857 148 857 l 230 857 q 318 832 283 857 q 354 799 330 822 q 386 765 379 776 q 406 694 406 737 l 406 598 m 305 587 l 305 597 l 305 697 q 304 709 305 708 q 278 737 298 720 q 244 762 258 754 q 230 763 243 763 l 201 763 q 187 762 188 763 q 153 737 173 754 q 127 709 133 720 q 125 697 125 707 l 125 597 q 127 584 125 587 q 153 556 133 573 q 187 531 173 540 q 201 530 188 530 l 230 530 q 244 531 243 530 q 281 558 258 538 q 305 587 304 577 "},"Ø":{"x_min":-11.109375,"x_max":623.65625,"ha":785,"o":"m 623 187 q 602 112 623 143 q 556 59 588 93 q 504 15 523 26 q 423 -8 462 -8 l 187 -8 q 141 0 163 -8 l 118 -41 l -8 -41 l 50 65 q 2 122 16 98 q -11 187 -11 147 l -11 640 q 8 713 -11 686 q 55 768 22 734 q 108 813 88 802 q 187 837 150 837 l 423 837 q 469 829 438 837 l 488 862 l 613 862 l 559 765 q 608 705 593 732 q 623 640 623 679 l 623 187 m 508 188 l 508 637 q 501 657 508 645 l 195 100 l 418 100 q 425 101 420 100 l 427 102 q 477 142 447 112 q 508 188 508 172 m 415 727 l 194 727 q 188 727 191 727 l 184 726 q 134 685 165 716 q 102 637 102 654 l 102 188 q 109 173 102 183 l 415 727 "},"∞":{"x_min":0,"x_max":0,"ha":638},"μ":{"x_min":0,"x_max":0,"ha":643},"÷":{"x_min":0,"x_max":0,"ha":600},"h":{"x_min":9.71875,"x_max":505.59375,"ha":665,"o":"m 505 0 l 397 0 l 397 433 q 394 448 397 445 q 368 481 386 463 q 336 506 350 498 q 319 509 327 509 l 229 509 q 169 479 208 509 q 118 430 130 450 l 118 430 l 118 430 l 118 430 l 118 429 l 118 429 l 118 429 l 118 427 l 118 427 l 118 426 l 118 426 l 118 425 l 118 425 l 118 423 l 118 422 l 118 422 l 118 420 l 118 419 l 118 418 l 118 416 l 118 415 l 118 413 l 118 412 l 118 411 l 118 409 l 118 408 l 118 406 l 118 405 l 118 404 l 118 402 l 118 401 l 118 400 l 118 398 l 118 397 l 118 395 l 118 394 l 118 393 l 118 391 l 118 390 l 118 388 l 118 387 l 118 386 l 118 384 l 118 383 l 118 381 l 118 380 l 118 379 l 118 377 l 118 376 l 118 375 l 118 373 l 118 372 l 118 370 l 118 369 l 118 368 l 118 366 l 118 365 l 118 363 l 118 362 l 118 361 l 118 359 l 118 358 l 118 356 l 118 355 l 118 354 l 118 352 l 118 351 l 118 350 l 118 348 l 118 345 l 118 344 l 118 343 l 118 341 l 118 340 l 118 338 l 118 337 l 118 336 l 118 334 l 118 331 l 118 330 l 118 329 l 118 327 l 118 326 l 118 325 l 118 322 l 118 320 l 118 319 l 118 318 l 118 316 l 118 313 l 118 312 l 118 311 l 118 309 l 118 308 l 118 305 l 118 304 l 118 302 l 118 301 l 118 298 l 118 297 l 118 295 l 118 293 l 118 291 l 118 290 l 118 288 l 118 286 l 118 284 l 118 283 l 118 280 l 118 279 l 118 277 l 118 275 l 118 273 l 118 272 l 118 269 l 118 268 l 118 265 l 118 263 l 118 262 l 118 259 l 118 258 l 118 256 l 118 254 l 118 252 l 118 250 l 118 248 l 118 247 l 118 244 l 118 243 l 118 240 l 118 238 l 118 236 l 118 234 l 118 231 l 118 230 l 118 229 l 118 226 l 118 225 l 118 222 l 118 220 l 118 218 l 118 216 l 118 213 l 118 212 l 118 209 l 118 208 l 118 205 l 118 204 l 118 201 l 118 200 l 118 197 l 118 194 l 118 193 l 118 190 l 118 188 l 118 186 l 118 184 l 118 181 l 118 180 l 118 177 l 118 175 l 118 173 l 118 170 l 118 169 l 118 166 l 118 163 l 118 162 l 118 159 l 118 158 l 118 155 l 118 152 l 118 151 l 118 148 l 118 145 l 118 144 l 118 141 l 118 138 l 118 137 l 118 134 l 118 131 l 118 130 l 118 127 l 118 125 l 118 123 l 118 120 l 118 118 l 118 116 l 118 113 l 118 111 l 118 109 l 118 106 l 118 104 l 118 101 l 118 100 l 118 97 l 118 94 l 118 91 l 118 90 l 118 87 l 118 84 l 118 81 l 118 80 l 118 77 l 118 75 l 118 72 l 118 70 l 118 68 l 118 65 l 118 62 l 118 59 l 118 58 l 118 55 l 118 52 l 118 50 l 118 47 l 118 45 l 118 43 l 118 40 l 118 37 l 118 34 l 118 31 l 118 30 l 118 27 l 118 25 l 118 22 l 118 19 l 118 16 l 118 15 l 118 12 l 118 0 l 9 0 l 9 837 l 118 837 l 118 558 q 225 612 177 612 l 320 612 q 415 583 375 612 q 481 515 451 556 q 505 436 505 481 l 505 0 "},".":{"x_min":88.890625,"x_max":230.578125,"ha":404,"o":"m 230 0 l 88 0 l 88 143 l 230 143 l 230 0 "},";":{"x_min":-1.390625,"x_max":215.296875,"ha":396,"o":"m 201 370 l 59 370 l 59 523 l 201 523 l 201 370 m 215 101 l 120 -120 l -1 -120 l 109 136 l 215 101 "},"f":{"x_min":-13.890625,"x_max":375.03125,"ha":472,"o":"m 375 738 l 270 738 q 250 736 254 738 q 215 707 236 727 q 193 675 194 687 l 193 662 l 193 607 l 300 607 l 300 505 l 193 505 l 193 0 l 84 0 l 84 505 l -13 505 l -13 607 l 84 607 l 84 665 q 106 745 84 713 q 173 812 134 783 q 269 840 213 840 l 375 840 l 375 738 "},"“":{"x_min":48.609375,"x_max":380.59375,"ha":531,"o":"m 380 901 l 369 801 l 369 633 l 263 633 l 263 819 l 273 901 l 380 901 m 165 901 l 154 801 l 154 633 l 48 633 l 48 819 l 58 901 l 165 901 "},"A":{"x_min":-41.671875,"x_max":688.9375,"ha":800,"o":"m 688 0 l 566 0 l 504 186 l 143 186 l 79 0 l -41 0 l 248 837 l 398 836 l 688 0 m 468 293 l 323 716 l 179 293 l 468 293 "},"6":{"x_min":11.109375,"x_max":568.09375,"ha":714,"o":"m 568 655 l 456 626 l 443 654 q 407 698 431 675 q 365 732 383 722 q 352 733 358 733 l 201 732 q 186 730 188 732 q 127 670 150 709 q 125 655 125 668 l 125 480 q 229 525 173 525 l 373 525 q 465 497 426 525 q 505 461 480 486 q 538 425 530 437 q 562 345 562 388 l 562 173 q 538 94 562 130 q 505 56 530 81 q 465 20 480 31 q 373 -8 425 -8 l 200 -8 q 108 20 148 -8 q 68 56 93 31 q 34 94 43 81 q 11 173 11 130 l 11 658 q 34 737 11 701 q 68 775 43 750 q 108 811 94 800 q 200 840 148 840 l 358 840 q 437 818 401 840 q 529 727 483 790 q 568 655 541 711 m 448 175 l 448 344 q 445 358 448 355 q 413 399 436 377 q 372 420 390 420 l 233 420 l 222 419 q 125 336 145 380 l 125 175 q 127 161 125 163 q 160 122 136 144 q 201 100 184 100 l 372 100 q 412 120 390 100 q 445 161 434 141 q 448 175 448 163 "},"‘":{"x_min":48.609375,"x_max":165.296875,"ha":315,"o":"m 165 911 l 154 811 l 154 643 l 48 643 l 48 829 l 58 911 l 165 911 "},"π":{"x_min":11.109375,"x_max":766.734375,"ha":903,"o":"m 766 194 q 745 120 766 151 q 700 68 733 101 q 645 23 666 36 q 551 0 604 0 l 209 0 q 130 23 172 0 q 76 68 109 36 q 30 120 43 101 q 11 194 11 148 l 11 647 q 30 719 11 691 q 77 774 44 740 q 130 819 111 808 q 209 843 172 843 l 565 843 q 645 819 604 843 q 698 774 665 808 q 745 719 732 740 q 766 647 766 688 l 766 194 m 657 195 l 657 644 q 654 655 657 650 q 613 703 641 676 q 568 737 584 730 l 563 738 q 558 738 561 738 l 216 738 q 211 738 213 738 l 206 737 q 163 702 191 729 q 122 655 134 675 q 120 644 120 654 l 120 195 q 154 147 120 180 q 206 105 187 115 l 211 104 q 216 102 213 102 l 558 102 q 563 104 561 102 l 568 105 q 622 147 588 115 q 657 195 657 180 m 587 491 q 575 406 587 425 q 529 362 562 390 q 472 325 495 334 q 413 312 422 312 l 309 312 l 309 161 l 200 161 l 200 677 l 408 677 q 501 648 461 677 q 541 613 516 637 q 575 576 566 588 q 587 506 587 556 l 587 491 m 490 486 l 490 501 q 487 515 490 512 q 425 570 472 545 q 408 573 416 573 l 309 573 l 309 415 l 408 415 q 452 435 426 415 q 487 470 479 455 q 490 486 490 473 "},"O":{"x_min":25,"x_max":645.890625,"ha":804,"o":"m 645 187 q 625 113 645 144 q 579 61 612 94 q 525 16 545 29 q 444 -6 483 -6 l 225 -6 q 145 16 187 -6 q 90 61 125 29 q 44 113 56 94 q 25 187 25 141 l 25 640 q 44 713 25 686 q 90 766 56 733 q 145 812 125 800 q 225 836 187 836 l 444 836 q 525 812 483 836 q 577 767 544 801 q 625 713 611 733 q 645 640 645 683 l 645 187 m 530 188 l 530 637 q 529 648 530 647 q 490 693 516 668 q 448 726 463 718 l 444 727 q 438 727 441 727 l 231 727 q 225 727 229 727 l 222 726 q 170 685 202 716 q 138 637 138 654 l 138 188 q 171 143 138 175 q 222 102 204 111 l 225 102 q 231 101 229 101 l 438 101 q 444 102 441 101 l 448 102 q 500 142 469 112 q 530 188 530 172 "},"n":{"x_min":9.71875,"x_max":520.875,"ha":681,"o":"m 520 0 l 412 0 l 412 427 q 411 443 412 440 q 351 501 390 479 q 334 504 343 504 l 236 504 q 179 476 218 504 q 129 431 141 448 l 129 0 l 20 0 l 20 487 l 9 598 l 118 598 l 123 550 q 231 604 183 604 l 336 604 q 431 576 393 604 q 498 509 470 547 q 520 430 520 477 l 520 0 "},"3":{"x_min":5.5625,"x_max":562.546875,"ha":714,"o":"m 562 172 q 538 93 562 129 q 505 55 530 80 q 465 19 480 30 q 373 -9 425 -9 l 215 -9 q 44 101 127 -9 q 5 175 33 115 l 116 204 l 130 179 q 167 131 143 155 q 208 100 191 106 q 219 98 213 98 l 372 98 q 412 119 390 98 q 445 159 434 140 q 448 173 448 162 l 448 291 q 445 305 448 302 q 413 345 437 323 q 373 366 390 366 l 220 366 l 220 473 l 372 473 q 387 476 384 473 q 445 533 423 494 q 448 548 448 536 l 448 655 q 445 670 448 668 q 387 730 423 709 q 372 732 386 732 l 219 733 l 208 732 q 165 698 190 722 q 130 654 141 675 q 116 626 126 648 l 5 655 q 44 727 31 711 q 136 818 90 790 q 215 840 172 840 l 373 840 q 465 811 425 840 q 504 775 479 801 q 538 736 530 748 q 562 658 562 700 l 562 545 q 552 494 562 518 q 530 457 541 470 q 494 420 519 444 q 530 383 518 397 q 552 345 543 369 q 562 294 562 322 l 562 172 "},"9":{"x_min":5.5625,"x_max":563.9375,"ha":714,"o":"m 563 173 q 540 94 563 130 q 506 56 531 81 q 466 20 480 31 q 373 -8 426 -8 l 216 -8 q 137 13 173 -8 q 45 104 91 41 q 5 176 23 136 l 116 205 l 130 177 q 166 133 141 156 q 209 100 191 109 q 222 98 216 98 l 372 100 q 388 101 386 100 q 447 161 425 122 q 450 176 450 163 l 450 358 q 345 312 397 312 l 201 312 q 108 340 145 312 q 34 411 58 376 q 11 491 11 447 l 11 658 q 34 737 11 701 q 68 775 43 750 q 108 811 94 800 q 201 840 148 840 l 373 840 q 466 811 426 840 q 506 775 480 800 q 540 737 531 750 q 563 658 563 701 l 563 173 m 450 501 l 450 657 q 447 670 450 668 q 413 710 436 688 q 372 732 390 732 l 202 732 q 186 729 194 732 q 154 702 172 720 q 127 670 136 684 q 125 657 125 668 l 125 493 q 127 479 125 481 q 186 419 150 440 q 202 416 194 416 l 341 416 l 351 418 q 409 456 379 431 q 450 501 440 480 "},"l":{"x_min":31.953125,"x_max":151.40625,"ha":325,"o":"m 151 0 l 43 0 q 39 25 41 6 q 36 51 37 43 q 31 90 31 73 l 31 837 l 137 837 l 137 106 q 151 0 137 77 "},"¤":{"x_min":11.109375,"x_max":677.828125,"ha":810,"o":"m 677 176 q 640 104 651 119 q 468 -8 555 -8 l 270 -8 q 190 15 231 -8 q 136 60 169 27 q 90 112 102 93 q 70 186 70 140 l 70 270 l 11 270 l 11 370 l 70 370 l 70 451 l 11 451 l 11 552 l 70 552 l 70 640 q 90 712 70 684 q 137 766 104 732 q 190 811 170 800 q 269 834 231 834 l 468 834 q 640 722 555 834 q 677 651 658 697 l 568 618 l 554 647 q 518 691 543 668 q 475 725 493 715 q 463 726 469 726 l 276 726 q 269 725 273 726 l 266 725 q 225 691 251 716 q 186 647 198 666 l 186 605 l 186 552 l 512 552 l 512 451 l 186 451 l 186 370 l 512 370 l 512 270 l 186 270 l 186 187 l 186 179 q 225 134 198 159 q 266 101 251 109 l 269 100 q 276 100 273 100 l 463 100 l 475 101 q 554 179 527 130 q 568 205 558 184 l 677 176 "},"∂":{"x_min":0,"x_max":0,"ha":695},"4":{"x_min":5.5625,"x_max":600.046875,"ha":714,"o":"m 600 180 l 508 180 l 508 0 l 395 0 l 395 180 l 5 180 l 5 276 l 362 834 l 508 834 l 508 287 l 600 287 l 600 180 m 395 287 l 395 683 l 141 287 l 395 287 "},"p":{"x_min":9.71875,"x_max":527.8125,"ha":685,"o":"m 527 155 q 504 75 527 106 q 437 6 473 33 q 343 -20 398 -20 l 234 -20 q 127 31 186 -20 l 127 -247 l 19 -247 l 19 480 l 9 591 l 118 591 l 123 540 q 234 598 184 598 l 343 598 q 437 569 397 598 q 504 502 476 540 q 527 422 527 469 l 527 155 m 419 158 l 419 419 q 416 434 419 431 q 390 466 408 448 q 358 493 372 484 q 341 497 345 497 l 238 497 q 179 467 219 497 q 127 419 140 437 l 127 159 q 179 111 140 141 q 238 80 219 80 l 341 80 q 358 83 350 80 q 416 143 394 104 q 419 158 419 145 "},"‡":{"x_min":0,"x_max":0,"ha":542},"à":{"x_min":-13.890625,"x_max":513.9375,"ha":670,"o":"m 513 -1 l 405 -1 l 400 45 q 291 -8 336 -8 l 169 -8 q 75 19 113 -8 q 9 84 37 47 q -13 163 -13 116 l -13 190 q 9 269 -13 237 q 75 334 37 306 q 169 362 113 362 l 394 362 l 394 427 q 393 441 394 438 q 333 498 373 475 q 316 502 320 502 l 186 502 q 171 499 179 502 q 156 489 163 495 q 144 477 150 483 q 131 463 138 472 q 122 452 125 455 l 104 429 l 2 459 q 43 524 15 488 q 94 576 72 559 q 190 602 133 602 l 318 602 q 413 575 375 602 q 480 509 455 544 q 502 429 502 477 l 502 108 l 513 -1 m 395 165 l 395 262 l 170 262 q 154 259 162 262 q 97 202 118 238 q 94 188 94 200 l 94 165 q 97 151 94 154 q 154 95 116 116 q 170 91 166 91 l 287 91 q 300 94 294 91 q 395 165 369 126 m 381 729 l 266 698 l 58 888 l 206 888 l 381 729 "},"Ü":{"x_min":25,"x_max":611.15625,"ha":765,"o":"m 611 187 q 591 115 611 143 q 545 63 579 95 q 491 18 512 30 q 412 -5 450 -5 l 226 -5 q 145 18 187 -5 q 91 63 125 30 q 45 115 58 95 q 25 187 25 145 l 25 833 l 140 833 l 140 190 q 172 144 140 176 q 223 104 205 112 l 227 102 q 233 102 230 102 l 405 102 q 411 102 408 102 l 415 104 q 465 144 433 112 q 497 190 497 176 l 497 833 l 611 833 l 611 187 m 485 892 l 365 892 l 365 1020 l 485 1020 l 485 892 m 276 892 l 157 892 l 157 1020 l 276 1020 l 276 892 "},"ó":{"x_min":11.109375,"x_max":519.484375,"ha":672,"o":"m 519 166 q 497 87 519 119 q 430 20 469 50 q 334 -6 391 -6 l 195 -6 q 100 20 138 -6 q 33 87 61 50 q 11 166 11 119 l 11 430 q 33 509 11 477 q 100 576 61 547 q 195 604 138 604 l 334 604 q 430 576 391 604 q 497 509 469 547 q 519 430 519 477 l 519 166 m 411 158 l 411 169 l 411 427 q 409 443 411 440 q 350 500 390 476 q 333 504 337 504 l 197 504 q 180 500 193 504 q 120 443 140 476 q 118 427 118 440 l 118 169 q 120 154 118 156 q 180 97 140 120 q 197 93 193 93 l 333 93 q 350 97 337 93 q 387 126 365 105 q 411 158 409 147 m 430 888 l 222 698 l 106 729 l 281 888 l 430 888 "},"√":{"x_min":0,"x_max":0,"ha":900}}}
